<svg xmlns="http://www.w3.org/2000/svg" width="24.566" height="17.967" viewBox="0 0 24.566 17.967">
  <g id="_360" data-name="360" transform="translate(0.5 -76.092)">
    <g id="Group_16849" data-name="Group 16849" transform="translate(1 76.592)">
      <path id="Path_12148" data-name="Path 12148" d="M253.705,210.353a.434.434,0,0,0-.239.834c1.98.566,3.209,1.387,3.209,2.143,0,.553-.673,1.16-1.846,1.666a17.647,17.647,0,0,1-5.156,1.146l-1.777-.024h-.006a.434.434,0,0,0-.006.867l1.8.024h.006l.039,0a18.543,18.543,0,0,0,5.445-1.215c1.959-.844,2.37-1.8,2.37-2.462C257.544,212.118,256.181,211.061,253.705,210.353Z" transform="translate(-234.978 -201.743)" fill="#10251c" stroke="#10251c" stroke-width="1" opacity="0.3"/>
      <path id="Path_12149" data-name="Path 12149" d="M87.313,140.66a.434.434,0,1,0,0,.867H89.1v1.793H87.313a.434.434,0,0,0,0,.867H89.53a.434.434,0,0,0,.434-.434v-5.32A.434.434,0,0,0,89.53,138H87.313a.434.434,0,0,0,0,.867H89.1v1.793Z" transform="translate(-82.785 -132.519)" fill="#10251c" stroke="#10251c" stroke-width="1"/>
      <path id="Path_12150" data-name="Path 12150" d="M179.313,144.188h2.66a.434.434,0,0,0,.434-.434v-2.66a.434.434,0,0,0-.434-.434h-2.226v-1.793h1.783a.434.434,0,0,0,0-.867h-2.217a.434.434,0,0,0-.434.434v5.32A.434.434,0,0,0,179.313,144.188Zm.434-2.66h1.793v1.793h-1.793Z" transform="translate(-170.368 -132.519)" fill="#10251c" stroke="#10251c" stroke-width="1"/>
      <path id="Path_12151" data-name="Path 12151" d="M281.555,144.188h2.66a.434.434,0,0,0,.434-.434v-5.32a.434.434,0,0,0-.434-.434h-2.66a.434.434,0,0,0-.434.434v5.32A.434.434,0,0,0,281.555,144.188Zm.434-5.32h1.793v4.453h-1.793Z" transform="translate(-267.713 -132.519)" fill="#10251c" stroke="#10251c" stroke-width="1"/>
      <path id="Path_12152" data-name="Path 12152" d="M7.931,217.66a.434.434,0,0,0-.662.56l.97,1.147A18.817,18.817,0,0,1,2.975,218.3c-1.339-.528-2.107-1.175-2.107-1.773,0-.695,1.029-1.443,2.754-2a.434.434,0,0,0-.268-.825,7.855,7.855,0,0,0-2.364,1.15A2.156,2.156,0,0,0,0,216.525c0,1,.919,1.894,2.656,2.58a19.519,19.519,0,0,0,5.388,1.117l-.865.959a.434.434,0,1,0,.644.581L9.4,220.013a.434.434,0,0,0,.112-.291v-.033a.434.434,0,0,0-.1-.28Z" transform="translate(-1 -204.938)" fill="#10251c" stroke="#10251c" stroke-width="1" opacity="0.3"/>
      <path id="Path_12153" data-name="Path 12153" d="M371.848,79.233h1.773a.434.434,0,0,0,.434-.434V77.026a.434.434,0,0,0-.434-.434h-1.773a.434.434,0,0,0-.434.434V78.8A.434.434,0,0,0,371.848,79.233Zm.434-1.774h.906v.906h-.906Z" transform="translate(-353.558 -76.592)" fill="#10251c" stroke="#10251c" stroke-width="1"/>
    </g>
  </g>
</svg>
