<svg xmlns="http://www.w3.org/2000/svg" width="26" height="18.022" viewBox="0 0 26 18.022">
  <g id="_360" data-name="360" transform="translate(0.5 -76.092)">
    <g id="Group_16850" data-name="Group 16850" transform="translate(0 76.592)">
      <g id="Group_16849" data-name="Group 16849" transform="translate(0 0)">
        <path id="Path_12148" data-name="Path 12148" d="M254.086,210.354a.46.46,0,0,0-.253.885c2.1.6,3.4,1.472,3.4,2.274,0,.587-.714,1.231-1.958,1.767a18.722,18.722,0,0,1-5.47,1.216l-1.885-.026h-.006a.46.46,0,0,0-.006.92l1.909.026h.006l.041,0a19.672,19.672,0,0,0,5.776-1.289c2.078-.9,2.514-1.915,2.514-2.612C258.158,212.227,256.711,211.105,254.086,210.354Z" transform="translate(-233.158 -202.198)" fill="#f5f0ea" stroke="#f5f0ea" stroke-width="1" opacity="0.3"/>
        <path id="Path_12149" data-name="Path 12149" d="M87.339,140.822a.46.46,0,0,0,0,.92h1.892v1.9H87.339a.46.46,0,0,0,0,.92h2.352a.46.46,0,0,0,.46-.46V138.46a.46.46,0,0,0-.46-.46H87.339a.46.46,0,0,0,0,.92h1.892v1.9Z" transform="translate(-82.262 -134.513)" fill="#f5f0ea" stroke="#f5f0ea" stroke-width="1"/>
        <path id="Path_12150" data-name="Path 12150" d="M179.339,144.564h2.822a.46.46,0,0,0,.46-.46v-2.822a.46.46,0,0,0-.46-.46H179.8v-1.9h1.892a.46.46,0,1,0,0-.92h-2.352a.46.46,0,0,0-.46.46V144.1A.46.46,0,0,0,179.339,144.564Zm.46-2.822h1.9v1.9h-1.9Z" transform="translate(-169.341 -134.513)" fill="#f5f0ea" stroke="#f5f0ea" stroke-width="1"/>
        <path id="Path_12151" data-name="Path 12151" d="M281.581,144.564H284.4a.46.46,0,0,0,.46-.46V138.46a.46.46,0,0,0-.46-.46h-2.822a.46.46,0,0,0-.46.46V144.1A.46.46,0,0,0,281.581,144.564Zm.46-5.644h1.9v4.724h-1.9Z" transform="translate(-266.131 -134.513)" fill="#f5f0ea" stroke="#f5f0ea" stroke-width="1"/>
        <path id="Path_12152" data-name="Path 12152" d="M8.414,217.9a.46.46,0,0,0-.7.594l1.029,1.217a19.963,19.963,0,0,1-5.584-1.134C1.735,218.019.92,217.333.92,216.7c0-.737,1.092-1.531,2.921-2.125a.46.46,0,0,0-.284-.875,8.334,8.334,0,0,0-2.508,1.221A2.287,2.287,0,0,0,0,216.7c0,1.063.974,2.009,2.818,2.737a20.708,20.708,0,0,0,5.716,1.185l-.918,1.017a.46.46,0,1,0,.683.616L9.973,220.4a.46.46,0,0,0,.119-.308v-.035a.46.46,0,0,0-.109-.3Z" transform="translate(0 -205.384)" fill="#f5f0ea" stroke="#f5f0ea" stroke-width="1" opacity="0.3"/>
        <path id="Path_12153" data-name="Path 12153" d="M371.874,79.394h1.881a.46.46,0,0,0,.46-.46V77.052a.46.46,0,0,0-.46-.46h-1.881a.46.46,0,0,0-.46.46v1.882A.46.46,0,0,0,371.874,79.394Zm.46-1.882h.961v.961h-.961Z" transform="translate(-351.41 -76.592)" fill="#f5f0ea" stroke="#f5f0ea" stroke-width="1"/>
      </g>
    </g>
  </g>
</svg>
