<svg xmlns="http://www.w3.org/2000/svg" width="33.151" height="33" viewBox="0 0 33.151 33">
  <g id="about_us" transform="translate(-3.203 1.329)">
    <g id="Layer_2_1_" transform="translate(20.891 10.76)">
      <g id="Layer_1-2">
        <path id="Path_12086" data-name="Path 12086" d="M58.3,81.27a.6.6,0,0,1-.6-.6V76.6c0-1.945,1.855-3.5,4.13-3.5h6.7c2.274,0,4.13,1.586,4.13,3.5v4.1a.6.6,0,0,1-.6.6H67.247a.6.6,0,0,1,0-1.2H71.5V76.6c0-1.287-1.317-2.334-2.963-2.334H61.86c-1.646,0-2.963,1.047-2.963,2.334v4.1a.575.575,0,0,1-.6.569Z" transform="translate(-57.7 -60.89)" fill="#e7e0d6" stroke="#e7e0d6" stroke-width="1"/>
        <path id="Path_12087" data-name="Path 12087" d="M70.036,43.372a5.536,5.536,0,1,1,5.536-5.536A5.543,5.543,0,0,1,70.036,43.372Zm0-9.906a4.369,4.369,0,1,0,4.369,4.369A4.355,4.355,0,0,0,70.036,33.467Z" transform="translate(-62.465 -32.299)" fill="#e7e0d6" stroke="#e7e0d6" stroke-width="1"/>
      </g>
    </g>
    <g id="Layer_2_3_" transform="translate(3.703 10.761)">
      <g id="Layer_1-2_2_" transform="translate(0)">
        <path id="Path_12089" data-name="Path 12089" d="M17.395,81.27a.6.6,0,0,1-.6-.6V76.6c0-1.287-1.317-2.334-2.963-2.334H7.16C5.544,74.267,4.2,75.315,4.2,76.6v3.5h4.25a.6.6,0,0,1,0,1.2H3.6a.6.6,0,0,1-.6-.6V76.6c0-1.945,1.855-3.5,4.13-3.5h6.7c2.274,0,4.13,1.586,4.13,3.5v4.1a.519.519,0,0,1-.569.569Z" transform="translate(-3 -60.89)" fill="#e7e0d6" stroke="#e7e0d6" stroke-width="1"/>
        <path id="Path_12090" data-name="Path 12090" d="M9.3,37.836a5.536,5.536,0,1,1,5.536,5.536A5.543,5.543,0,0,1,9.3,37.836Zm1.2,0a4.369,4.369,0,1,0,4.369-4.369A4.355,4.355,0,0,0,10.5,37.836Z" transform="translate(-7.415 -32.3)" fill="#e7e0d6" stroke="#e7e0d6" stroke-width="1"/>
      </g>
    </g>
    <g id="Group_16795" data-name="Group 16795" transform="translate(14.11 -0.829)">
      <path id="Path_12088" data-name="Path 12088" d="M42.553,11.737a5.669,5.669,0,1,1,5.684-5.653A5.66,5.66,0,0,1,42.553,11.737Zm0-10.115a4.462,4.462,0,1,0,4.462,4.462,4.654,4.654,0,0,0-1.108-2.952A4.29,4.29,0,0,0,42.553,1.622Z" transform="translate(-36.9 -0.4)" fill="#e7e0d6" stroke="#e7e0d6" stroke-width="1"/>
      <g id="Group_16794" data-name="Group 16794" transform="translate(5.299 3.044)">
        <line id="Line_44" data-name="Line 44" y2="2.835" transform="translate(0.354 2.415)" fill="none" stroke="#e7e0d6" stroke-linecap="round" stroke-linejoin="round" stroke-miterlimit="10" stroke-width="1.5"/>
        <ellipse id="Ellipse_49" data-name="Ellipse 49" cx="0.354" cy="0.354" rx="0.354" ry="0.354" fill="#e7e0d6" stroke="#e7e0d6" stroke-width="1"/>
      </g>
    </g>
  </g>
</svg>
