<svg xmlns="http://www.w3.org/2000/svg" width="8" height="10.607" viewBox="0 0 8 10.607">
  <g id="Group_16811" data-name="Group 16811" transform="translate(-183.5 -624.285)">
    <g id="Group_16778" data-name="Group 16778" transform="translate(191.5 630.089) rotate(90)">
      <g id="Group_16724" data-name="Group 16724" transform="translate(0)">
        <path id="Path_10269" data-name="Path 10269" d="M4.8,4a.8.8,0,0,0-.232-.567l-3.2-3.2A.8.8,0,1,0,.235,1.37L2.875,4,.235,6.63A.8.8,0,0,0,1.371,7.764l3.2-3.2A.8.8,0,0,0,4.8,4Z" transform="translate(0)" fill="#f5f0ea"/>
      </g>
    </g>
    <g id="Group_16810" data-name="Group 16810" transform="translate(191.5 624.285) rotate(90)" opacity="0.2">
      <g id="Group_16724-2" data-name="Group 16724" transform="translate(0)">
        <path id="Path_10269-2" data-name="Path 10269" d="M4.8,4a.8.8,0,0,0-.232-.567l-3.2-3.2A.8.8,0,1,0,.235,1.37L2.875,4,.235,6.63A.8.8,0,0,0,1.371,7.764l3.2-3.2A.8.8,0,0,0,4.8,4Z" transform="translate(0)" fill="#f5f0ea"/>
      </g>
    </g>
  </g>
</svg>
