<svg xmlns="http://www.w3.org/2000/svg" width="8.499" height="10.55" viewBox="0 0 8.499 10.55">
  <g id="Group_16811" data-name="Group 16811" transform="translate(-183.25 -738.529)">
    <path id="Path_10269" data-name="Path 10269" d="M4.8,4a.8.8,0,0,1-.232.567l-3.2,3.2A.8.8,0,1,1,.235,6.63L2.875,4,.235,1.37A.8.8,0,0,1,1.371.236l3.2,3.2A.8.8,0,0,1,4.8,4Z" transform="translate(183.25 743.333) rotate(-90)" fill="#f5f0ea"/>
    <g id="Group_16810" data-name="Group 16810" transform="translate(183.75 749.078) rotate(-90)" opacity="0.2">
      <g id="Group_16724" data-name="Group 16724" transform="translate(0 0)">
        <path id="Path_10269-2" data-name="Path 10269" d="M4.8,4a.8.8,0,0,1-.232.567l-3.2,3.2A.8.8,0,1,1,.235,6.63L2.875,4,.235,1.37A.8.8,0,0,1,1.371.236l3.2,3.2A.8.8,0,0,1,4.8,4Z" transform="translate(0 0)" fill="#f5f0ea"/>
      </g>
    </g>
  </g>
</svg>
