<svg xmlns="http://www.w3.org/2000/svg" width="33.276" height="32.5" viewBox="0 0 33.276 32.5">
  <g id="date-and-time-icon" transform="translate(0.25 0.25)">
    <path id="Path_12104" data-name="Path 12104" d="M18.607,1.083A1.219,1.219,0,0,1,19.928,0a1.215,1.215,0,0,1,1.32,1.083V5.815A1.219,1.219,0,0,1,19.928,6.9a1.215,1.215,0,0,1-1.32-1.083V1.083ZM3.833,20.819H6.858a.351.351,0,0,1,.349.349V23.4a.351.351,0,0,1-.349.349H3.833a.351.351,0,0,1-.349-.349V21.168a.349.349,0,0,1,.349-.349Zm11.582-6.37h3.025a.353.353,0,0,1,.24.1,10.767,10.767,0,0,0-3.033,2.841h-.232a.351.351,0,0,1-.349-.349V14.8a.351.351,0,0,1,.349-.352Zm-5.791,0h3.025A.351.351,0,0,1,13,14.8v2.235a.351.351,0,0,1-.349.349H9.624a.351.351,0,0,1-.349-.349V14.8a.351.351,0,0,1,.349-.349Zm-5.791,0H6.858a.351.351,0,0,1,.349.349v2.235a.351.351,0,0,1-.349.349H3.833a.351.351,0,0,1-.349-.349V14.8a.351.351,0,0,1,.349-.349Zm5.791,6.37h3.025a.351.351,0,0,1,.349.349V23.4a.351.351,0,0,1-.349.349H9.624a.351.351,0,0,1-.349-.349V21.168a.349.349,0,0,1,.349-.349ZM27.6,15.881A8.378,8.378,0,1,1,16.02,23.622a8.515,8.515,0,0,1,5.215-7.8,8.819,8.819,0,0,1,6.37.056ZM23.11,23.4a1.4,1.4,0,0,1,.371-.288V19.466a.674.674,0,0,1,1.347,0V23.11a1.423,1.423,0,0,1,.579.579h2.6a.672.672,0,1,1,0,1.344h-2.6a1.421,1.421,0,1,1-2.3-1.635Zm6.263-4.617a6.317,6.317,0,1,0,1.355,1.766,6.5,6.5,0,0,0-1.355-1.766ZM6.756,1.083A1.219,1.219,0,0,1,8.077,0,1.217,1.217,0,0,1,9.4,1.083V5.815A1.221,1.221,0,0,1,8.077,6.9a1.217,1.217,0,0,1-1.32-1.083V1.083Zm-5.3,9.264H26.583V4.9a.656.656,0,0,0-.195-.469.671.671,0,0,0-.469-.195H23.51a.731.731,0,0,1,0-1.462h2.409A2.131,2.131,0,0,1,28.05,4.905v8.65a10.926,10.926,0,0,0-1.483-.4V11.806H1.454V25.918a.656.656,0,0,0,.195.469.671.671,0,0,0,.469.195H14.06a10.74,10.74,0,0,0,.512,1.478H2.131A2.131,2.131,0,0,1,0,25.929V4.905A2.131,2.131,0,0,1,2.131,2.774H4.7a.731.731,0,0,1,0,1.462H2.131a.656.656,0,0,0-.469.195.671.671,0,0,0-.195.469v5.449H1.454v0ZM11.5,4.233a.731.731,0,1,1,0-1.462h4.905a.731.731,0,1,1,0,1.462Z" fill="#e7e0d6" stroke="#e7e0d6" stroke-width="0.5"/>
  </g>
</svg>
