<svg xmlns="http://www.w3.org/2000/svg" width="32.353" height="33.738" viewBox="0 0 32.353 33.738">
  <g id="Group_16796" data-name="Group 16796" transform="translate(-220.14 -424.042)">
    <g id="Path_12093" data-name="Path 12093" transform="translate(-36.831 -24.994)" fill="#e7e0d6">
      <path d="M 277.1495666503906 477.8168334960938 C 277.01806640625 477.8168334960938 276.8856506347656 477.8055419921875 276.7559509277344 477.7832641601562 C 274.8050842285156 477.4324951171875 272.8076782226562 476.4695739746094 270.9769897460938 474.9981689453125 C 269.2627563476562 473.620361328125 267.71337890625 471.8206176757812 266.4963989257812 469.79345703125 C 264.0516052246094 465.7212219238281 263.2430419921875 461.2683715820312 264.3334655761719 457.8821411132812 C 264.5653991699219 457.1649169921875 265.3701782226562 456.3489685058594 266.0143127441406 455.9742431640625 L 268.3655395507812 454.6054992675781 C 268.5982360839844 454.468505859375 268.8658142089844 454.3950805664062 269.1378784179688 454.3940124511719 C 269.7011108398438 454.3940124511719 270.2046203613281 454.7048034667969 270.4537048339844 455.2051086425781 L 272.5599975585938 459.336669921875 C 272.9429931640625 460.0870971679688 272.6528015136719 461.0478210449219 271.9130554199219 461.4781494140625 L 270.7265014648438 462.169189453125 C 270.7142944335938 462.1761779785156 270.7046203613281 462.1820068359375 270.6949157714844 462.1878356933594 C 270.5099182128906 462.3016662597656 270.3786926269531 462.4830627441406 270.3285217285156 462.6966857910156 C 270.2786560058594 462.9089660644531 270.31494140625 463.1280212402344 270.4306640625 463.3135070800781 L 274.6176452636719 470.0155029296875 C 274.7801818847656 470.2723083496094 275.061767578125 470.4266662597656 275.3697814941406 470.4266662597656 L 275.3748779296875 470.4266662597656 C 275.5382385253906 470.4266357421875 275.6963500976562 470.3839111328125 275.8349304199219 470.3030700683594 L 277.0221252441406 469.6127319335938 C 277.2806091308594 469.4640197753906 277.5735168457031 469.3858337402344 277.8706359863281 469.3858337402344 L 277.8712158203125 469.3858337402344 L 277.8763732910156 469.3858337402344 L 277.8892822265625 469.3857727050781 C 278.4251098632812 469.3857727050781 278.9208068847656 469.6272277832031 279.249267578125 470.0482177734375 L 279.251220703125 470.0506896972656 L 279.2530822753906 470.0531921386719 L 282.0567321777344 473.7825927734375 C 282.3087768554688 474.119140625 282.4032592773438 474.5215148925781 282.3231811523438 474.9161376953125 C 282.2420349121094 475.3158874511719 281.992919921875 475.6551208496094 281.6217346191406 475.8713684082031 L 279.2702026367188 477.2397155761719 C 278.6857604980469 477.5794982910156 277.8184204101562 477.8168029785156 277.1609497070312 477.8168029785156 L 277.1495666503906 477.8168334960938 Z M 277.0548095703125 476.1021728515625 C 277.0856323242188 476.1068725585938 277.117431640625 476.1092529296875 277.1493835449219 476.1092529296875 L 277.1573181152344 476.1091918945312 C 277.5651550292969 476.1091613769531 278.1209106445312 475.930908203125 278.4043579101562 475.7657470703125 L 280.4869079589844 474.5498352050781 L 277.8909301757812 471.096435546875 C 277.8884582519531 471.0950622558594 277.8855285644531 471.0942993164062 277.882568359375 471.0942993164062 L 277.8753051757812 471.0945129394531 L 277.8721313476562 471.0944519042969 L 276.6961669921875 471.7784118652344 C 276.2956848144531 472.01171875 275.8386535644531 472.1354675292969 275.3747253417969 472.1361694335938 L 275.3582153320312 472.13623046875 C 274.4555053710938 472.1361694335938 273.6326904296875 471.6808776855469 273.1571350097656 470.9183349609375 L 268.9709777832031 464.2158508300781 C 268.6095886230469 463.6425170898438 268.4969787597656 462.9358520507812 268.6628112792969 462.2782897949219 C 268.8280944824219 461.6138916015625 269.265380859375 461.0352478027344 269.8623046875 460.6917724609375 L 270.9902648925781 460.03759765625 L 269.0338439941406 456.2000732421875 L 266.8815002441406 457.4527893066406 C 266.5035095214844 457.6724853515625 266.0395202636719 458.1842346191406 265.9689331054688 458.4059448242188 C 265.0208740234375 461.3514709472656 265.7823791503906 465.3028259277344 268.005615234375 468.9768371582031 C 270.3423767089844 472.8382873535156 273.72509765625 475.5016479492188 277.0548095703125 476.1021728515625 Z" stroke="none"/>
      <path d="M 269.1397399902344 454.7440185546875 C 269.1395568847656 454.7440185546875 269.139404296875 454.7440185546875 269.1392211914062 454.7440185546875 C 268.9288940429688 454.7448425292969 268.7225952148438 454.8014526367188 268.5416259765625 454.9079895019531 L 266.1903076171875 456.2767639160156 C 265.6079711914062 456.6155395507812 264.8692016601562 457.3629455566406 264.6666259765625 457.9894104003906 C 262.3541870117188 465.1705627441406 269.048583984375 476.0417785644531 276.815185546875 477.4383239746094 C 276.9293212890625 477.4579467773438 277.0453186035156 477.46826171875 277.1609497070312 477.466796875 C 277.80224609375 477.466796875 278.6049194335938 477.2216491699219 279.0941772460938 476.9371948242188 L 281.445556640625 475.5689392089844 C 282.0279541015625 475.2296752929688 282.1748046875 474.5241088867188 281.7769775390625 473.992919921875 L 278.9733276367188 470.2635192871094 C 278.71337890625 469.9303588867188 278.3130798339844 469.7357788085938 277.8892822265625 469.7357788085938 C 277.8830871582031 469.7357788085938 277.8768310546875 469.7359008789062 277.8706359863281 469.73583984375 C 277.6343994140625 469.73583984375 277.4024353027344 469.7976989746094 277.1980590820312 469.9153137207031 L 276.0112915039062 470.6053771972656 C 275.8192138671875 470.7174377441406 275.6004638671875 470.7766418457031 275.377685546875 470.7766418457031 C 275.3753356933594 470.7767333984375 275.3724365234375 470.7766723632812 275.3697814941406 470.7766723632812 C 274.9437255859375 470.7766723632812 274.5475769042969 470.5592651367188 274.32080078125 470.200927734375 L 270.1337280273438 463.498779296875 C 269.7909545898438 462.949462890625 269.96142578125 462.2282104492188 270.5146484375 461.8878173828125 C 270.5265502929688 461.8806762695312 270.5384521484375 461.8735656738281 270.5503540039062 461.8667602539062 L 271.737060546875 461.1755981445312 C 272.3194580078125 460.8368225097656 272.548828125 460.084716796875 272.2481689453125 459.4956359863281 L 270.140380859375 455.3611145019531 C 269.9522399902344 454.9831848144531 269.5643920898438 454.7440490722656 269.1397399902344 454.7440185546875 M 275.3582458496094 471.7862243652344 C 275.36376953125 471.7862243652344 275.3691711425781 471.7861938476562 275.3746948242188 471.7861633300781 L 275.3742065429688 471.7861633300781 C 275.777099609375 471.7855529785156 276.1726684570312 471.6783142089844 276.5202026367188 471.4758605957031 L 277.7074584960938 470.7853393554688 C 277.7579040527344 470.7576904296875 277.8152160644531 470.7438049316406 277.87255859375 470.7444458007812 C 277.9805297851562 470.7409362792969 278.0842590332031 470.7861328125 278.1559448242188 470.8665161132812 L 280.9595336914062 474.5960693359375 C 280.9721069335938 474.6094970703125 280.979736328125 474.6268310546875 280.9813842773438 474.6451110839844 C 280.9813842773438 474.6539916992188 280.9668579101562 474.6746826171875 280.9292602539062 474.6968383789062 L 278.58056640625 476.0681457519531 C 278.250244140625 476.2606201171875 277.6292724609375 476.4591674804688 277.1615600585938 476.4591674804688 C 277.1063842773438 476.4600830078125 277.0513000488281 476.4559936523438 276.9968872070312 476.4473571777344 C 273.568115234375 475.8307800292969 270.0951538085938 473.1057739257812 267.7061767578125 469.1580505371094 C 265.4312133789062 465.3985595703125 264.6571655273438 461.3391418457031 265.6354370117188 458.2997741699219 C 265.7396850585938 457.9722900390625 266.2711181640625 457.4027404785156 266.7054443359375 457.1502990722656 L 269.0559692382812 455.7822265625 C 269.0808715820312 455.7663879394531 269.1097412109375 455.7574768066406 269.1392211914062 455.75634765625 C 269.1803588867188 455.75732421875 269.2171630859375 455.7822265625 269.2329711914062 455.8200378417969 L 271.3406982421875 459.9543762207031 C 271.3984985351562 460.0672607421875 271.3406982421875 460.2383422851562 271.2229614257812 460.3072509765625 L 270.036865234375 460.9951477050781 C 269.5191650390625 461.2930297851562 269.1456909179688 461.7870483398438 269.002197265625 462.3638916015625 C 268.85888671875 462.93212890625 268.954833984375 463.5338745117188 269.267822265625 464.0304565429688 L 273.4541015625 470.7331237792969 C 273.862548828125 471.3880920410156 274.5831604003906 471.7862243652344 275.3582458496094 471.7862243652344 M 269.1378784179688 454.0440368652344 L 269.1397399902344 454.0440368652344 C 269.8338012695312 454.0440368652344 270.45654296875 454.4280700683594 270.7656860351562 455.0464477539062 L 272.8717956542969 459.1777038574219 C 273.3377685546875 460.0906982421875 272.9866943359375 461.2585144042969 272.0890197753906 461.7806701660156 L 270.8976440429688 462.4745178222656 C 270.8915100097656 462.4780578613281 270.8853759765625 462.4817199707031 270.8792114257812 462.4854125976562 C 270.7722778320312 462.552001953125 270.69775390625 462.6553649902344 270.6692504882812 462.7767028808594 C 270.640869140625 462.8975830078125 270.6615905761719 463.0224304199219 270.7276000976562 463.1282043457031 L 274.9144592285156 469.8300476074219 C 275.0113830566406 469.9831848144531 275.1824340820312 470.07666015625 275.3697814941406 470.07666015625 L 275.3768310546875 470.0766296386719 C 275.4763488769531 470.0766296386719 275.5734558105469 470.0504150390625 275.6585388183594 470.0007629394531 L 276.84619140625 469.3101806640625 C 277.1590576171875 469.1301574707031 277.5123596191406 469.0358276367188 277.8706359863281 469.0358276367188 L 277.8892822265625 469.0357666015625 C 278.53369140625 469.0357666015625 279.1299743652344 469.3263244628906 279.5252380371094 469.8329467773438 L 279.5328369140625 469.8428955078125 L 282.3364868164062 473.5722961425781 C 282.6495971679688 473.9903259277344 282.7664184570312 474.491943359375 282.6661682128906 474.9857482910156 C 282.5663757324219 475.4774780273438 282.2499084472656 475.9104919433594 281.7979125976562 476.1737976074219 L 279.4462280273438 477.5422058105469 C 278.9114074707031 477.8531494140625 277.9975280761719 478.1667785644531 277.1609497070312 478.1667785644531 L 277.1494140625 478.1668090820312 C 276.9982299804688 478.1668090820312 276.845947265625 478.1538391113281 276.69677734375 478.1282348632812 L 276.6913146972656 478.1272583007812 C 272.7604675292969 477.4204406738281 268.8370971679688 474.3723754882812 266.1963195800781 469.9736328125 C 265.0176696777344 468.0103149414062 264.1824340820312 465.8932189941406 263.7809448242188 463.8512268066406 C 263.3439331054688 461.62841796875 263.417724609375 459.5840148925781 264.0003051757812 457.7748413085938 C 264.2678833007812 456.9474487304688 265.1469116210938 456.0739440917969 265.8383178710938 455.6716918945312 L 268.189453125 454.3030395507812 C 268.4740295410156 454.135498046875 268.8025207519531 454.0453186035156 269.1365051269531 454.0440368652344 L 269.1378784179688 454.0440368652344 Z M 270.5278625488281 459.9011840820312 L 268.8901062011719 456.6886901855469 L 267.0575561523438 457.7552795410156 C 266.7235412597656 457.9494323730469 266.3590698242188 458.3744812011719 266.3011474609375 458.5162048339844 C 265.3854064941406 461.3672790527344 266.1346130371094 465.2088623046875 268.3050537109375 468.795654296875 C 270.5893249511719 472.5703430175781 273.8808288574219 475.1718444824219 277.1113891601562 475.7567138671875 C 277.1236267089844 475.7583923339844 277.1363830566406 475.7592468261719 277.1493835449219 475.7592468261719 L 277.1615600585938 475.7591857910156 C 277.4909057617188 475.7591857910156 277.9880065917969 475.603271484375 278.2281494140625 475.4633178710938 L 279.9708557128906 474.4458312988281 L 277.7912902832031 471.54638671875 L 276.8721313476562 472.0809631347656 C 276.4185791015625 472.3451538085938 275.9008178710938 472.4853515625 275.3752746582031 472.4861755371094 L 275.3582458496094 472.4862365722656 C 274.3339538574219 472.4862365722656 273.4000854492188 471.9693298339844 272.8601379394531 471.1035461425781 L 268.6741027832031 464.4012756347656 C 268.2626953125 463.74853515625 268.1343078613281 462.942626953125 268.3234558105469 462.1927185058594 C 268.5112915039062 461.4375610351562 269.0087585449219 460.7791137695312 269.687744140625 460.388427734375 L 270.5278625488281 459.9011840820312 Z" stroke="none" fill="#e7e0d6"/>
    </g>
    <g id="Path_12094" data-name="Path 12094" transform="translate(-139.726 -27.24)" fill="#e7e0d6">
      <path d="M 388.7393493652344 460.4035034179688 L 388.7387390136719 460.4035034179688 L 388.7381286621094 460.4035034179688 C 388.45654296875 460.4031982421875 388.1949157714844 460.2635192871094 388.0382995605469 460.0298461914062 C 387.7007446289062 459.5243225097656 387.32666015625 459.0362854003906 386.9261169433594 458.5787963867188 C 386.6204528808594 458.2297973632812 386.65576171875 457.6970520019531 387.0048217773438 457.3912658691406 C 387.1584777832031 457.2568054199219 387.3552856445312 457.1828308105469 387.5590515136719 457.1828308105469 C 387.8017883300781 457.1828308105469 388.0326538085938 457.2875366210938 388.1924743652344 457.4701232910156 C 388.6400146484375 457.9812622070312 389.0590209960938 458.5275573730469 389.4378662109375 459.0938415527344 C 389.5302124023438 459.2324829101562 389.5791015625 459.393310546875 389.5796203613281 459.5594787597656 C 389.5804138183594 460.0239868164062 389.2034606933594 460.4024047851562 388.7393493652344 460.4035034179688 Z" stroke="none"/>
      <path d="M 388.738525390625 460.0534973144531 C 389.0102844238281 460.0528564453125 389.2300720214844 459.832275390625 389.2296142578125 459.560546875 C 389.2293090820312 459.4637145996094 389.2006530761719 459.3690795898438 389.1469421386719 459.2884521484375 C 388.7756958007812 458.7334899902344 388.3690185546875 458.2030639648438 387.9291076660156 457.7006530761719 C 387.750244140625 457.496337890625 387.4397888183594 457.4756774902344 387.2354431152344 457.654541015625 C 387.03125 457.8334045410156 387.0106201171875 458.14404296875 387.189453125 458.3482360839844 C 387.6011657714844 458.8185119628906 387.9818725585938 459.3150939941406 388.3290405273438 459.8349914550781 C 388.4205017089844 459.971435546875 388.5741577148438 460.0533142089844 388.738525390625 460.0534973144531 M 388.7401733398438 460.7535095214844 L 388.7377624511719 460.7535095214844 C 388.3393859863281 460.7530517578125 387.9692077636719 460.5553894042969 387.7475891113281 460.2247314453125 C 387.4180908203125 459.7312927246094 387.0533142089844 459.2554321289062 386.6627807617188 458.809326171875 C 386.2300109863281 458.3152160644531 386.2799682617188 457.5609130859375 386.7742004394531 457.1279907226562 C 386.9918518066406 456.9375610351562 387.2704772949219 456.8328247070312 387.5590515136719 456.8328247070312 C 387.9027099609375 456.8328247070312 388.2295532226562 456.9811096191406 388.4558410644531 457.2396240234375 C 388.9132690429688 457.7620239257812 389.341552734375 458.3204345703125 389.728759765625 458.8992309570312 C 389.8596801757812 459.0957946777344 389.9288940429688 459.3233032226562 389.9296264648438 459.5583801269531 C 389.9307250976562 460.2162780761719 389.3971557617188 460.751953125 388.7401733398438 460.7535095214844 Z" stroke="none" fill="#e7e0d6"/>
    </g>
    <g id="Path_12095" data-name="Path 12095" transform="matrix(0.985, 0.174, -0.174, 0.985, -61.642, -105.414)" fill="#e7e0d6">
      <path d="M 401.941650390625 481.0741271972656 C 401.5806884765625 481.0741271972656 401.2603759765625 480.8443298339844 401.1445617675781 480.5023193359375 C 400.9494323730469 479.92724609375 400.7143859863281 479.3594055175781 400.4460754394531 478.8148193359375 C 400.3466796875 478.6133728027344 400.3317260742188 478.3851013183594 400.404052734375 478.1721801757812 C 400.4763793945312 477.9593200683594 400.6272888183594 477.787353515625 400.8290100097656 477.6880187988281 C 400.9457397460938 477.6304321289062 401.0708618164062 477.6011962890625 401.2006530761719 477.6011962890625 C 401.5235900878906 477.6011962890625 401.8129272460938 477.7811279296875 401.9557800292969 478.0707397460938 C 402.2566528320312 478.6808471679688 402.5201110839844 479.3172912597656 402.7388305664062 479.9623413085938 C 402.8874816894531 480.4021911621094 402.6509399414062 480.8807983398438 402.2116394042969 481.029541015625 C 402.1242370605469 481.0591430664062 402.0333862304688 481.0741271972656 401.941650390625 481.0741271972656 Z" stroke="none"/>
      <path d="M 401.2006530761719 477.9512023925781 C 401.1276550292969 477.9512023925781 401.0535583496094 477.967529296875 400.983642578125 478.0020141601562 C 400.7400512695312 478.1219787597656 400.6399230957031 478.4167175292969 400.7600402832031 478.6601257324219 C 401.0361938476562 479.2206115722656 401.2753295898438 479.7984313964844 401.47607421875 480.3900756835938 C 401.5631408691406 480.6471862792969 401.8421630859375 480.7850341796875 402.0993957519531 480.6980285644531 C 402.3565063476562 480.6109619140625 402.4942626953125 480.3318481445312 402.4073791503906 480.0747375488281 C 402.1929321289062 479.4422912597656 401.9372253417969 478.824462890625 401.6418762207031 478.2255554199219 C 401.5562438964844 478.0519409179688 401.3819274902344 477.9512023925781 401.2006530761719 477.9512023925781 M 401.2005920410156 477.251220703125 L 401.2006225585938 477.251220703125 C 401.6578063964844 477.2512512207031 402.0674438476562 477.5059204101562 402.2696533203125 477.9158935546875 C 402.5773010253906 478.5397338867188 402.8466796875 479.1904296875 403.0703125 479.8499450683594 C 403.2808227539062 480.4728698730469 402.9458923339844 481.1504211425781 402.3239135742188 481.3610534667969 C 402.2001953125 481.4029235839844 402.0716247558594 481.4241333007812 401.941650390625 481.4241333007812 C 401.4305725097656 481.4241333007812 400.97705078125 481.0988159179688 400.8130493164062 480.6145935058594 C 400.6228637695312 480.0540771484375 400.3937377929688 479.5004577636719 400.1321105957031 478.9695129394531 C 399.9914245605469 478.6843566894531 399.97021484375 478.361083984375 400.0726623535156 478.0596008300781 C 400.1750793457031 477.7581787109375 400.3887634277344 477.5147094726562 400.6743774414062 477.3740234375 C 400.8371276855469 477.2937316894531 401.0192260742188 477.251220703125 401.2005920410156 477.251220703125 Z" stroke="none" fill="#e7e0d6"/>
    </g>
    <g id="Path_12096" data-name="Path 12096" transform="matrix(0.985, -0.174, 0.174, 0.985, -177.381, 61.76)" fill="#e7e0d6">
      <path d="M 348.9467468261719 432.3954162597656 C 348.9467163085938 432.3954162597656 348.9467163085938 432.3954162597656 348.9466857910156 432.3954162597656 C 348.8171691894531 432.3954162597656 348.6871948242188 432.3646850585938 348.5708618164062 432.3065490722656 C 348.02685546875 432.0349426269531 347.4598693847656 431.796142578125 346.8857421875 431.5968933105469 C 346.6736145019531 431.5235290527344 346.5025024414062 431.3717346191406 346.4042358398438 431.1695861816406 C 346.3059997558594 430.9674377441406 346.2923583984375 430.7391052246094 346.3658447265625 430.526611328125 C 346.4829406738281 430.187744140625 346.8025817871094 429.9599609375 347.1612243652344 429.9599609375 C 347.2547302246094 429.9599609375 347.3472290039062 429.9755249023438 347.4360961914062 430.0062255859375 C 348.0803527832031 430.2299499511719 348.7151184082031 430.4971313476562 349.3232727050781 430.8004760742188 C 349.5246276855469 430.9010925292969 349.6745910644531 431.0739135742188 349.7457580566406 431.2872009277344 C 349.81689453125 431.50048828125 349.8007507324219 431.7287292480469 349.7002258300781 431.9298400878906 C 349.5565490722656 432.2170715332031 349.2678527832031 432.3954162597656 348.9467468261719 432.3954162597656 Z" stroke="none"/>
      <path d="M 348.9467163085938 432.0454406738281 C 349.1271667480469 432.0454406738281 349.3009033203125 431.9457702636719 349.3871459960938 431.7733764648438 C 349.508544921875 431.5304565429688 349.4100036621094 431.2350769042969 349.1670532226562 431.1136779785156 C 348.5692443847656 430.8154907226562 347.9528503417969 430.5561828613281 347.3218383789062 430.3370361328125 C 347.0651550292969 430.2484741210938 346.7852783203125 430.3843994140625 346.6966247558594 430.6410522460938 C 346.6078491210938 430.8976745605469 346.7438354492188 431.1774597167969 347.0005187988281 431.2662353515625 C 347.5912170410156 431.4712524414062 348.1679382324219 431.7141723632812 348.7273254394531 431.9934692382812 C 348.7978820800781 432.0287170410156 348.8728637695312 432.0454406738281 348.9467163085938 432.0454406738281 M 348.94677734375 432.7454223632812 C 348.7631530761719 432.7454223632812 348.5790710449219 432.7019348144531 348.4143981933594 432.61962890625 C 347.8839111328125 432.3547668457031 347.3309020996094 432.1218566894531 346.77099609375 431.9275207519531 C 346.4708862304688 431.82373046875 346.2285766601562 431.6088256835938 346.0894470214844 431.3226013183594 C 345.9503173828125 431.0363464355469 345.9310302734375 430.7130432128906 346.0350952148438 430.4122009277344 C 346.2008361816406 429.9324645996094 346.6534118652344 429.6099548339844 347.1612243652344 429.6099548339844 C 347.2937316894531 429.6099548339844 347.4246520996094 429.6319580078125 347.5503540039062 429.6753845214844 C 348.2092895507812 429.9042358398438 348.8579711914062 430.17724609375 349.4794921875 430.4872741699219 C 349.7647094726562 430.6297912597656 349.9770202636719 430.8744506835938 350.0777587890625 431.1764221191406 C 350.1784973144531 431.4784240722656 350.1556091308594 431.8015441894531 350.0133056640625 432.0863037109375 C 349.8098754882812 432.4929809570312 349.4012451171875 432.7454223632812 348.94677734375 432.7454223632812 Z" stroke="none" fill="#e7e0d6"/>
    </g>
    <g id="Path_12097" data-name="Path 12097" transform="translate(-124.826 -14.315)" fill="#e7e0d6">
      <path d="M 370.7540283203125 443.8649597167969 C 370.5491027832031 443.8649597167969 370.3515625 443.7902526855469 370.1977233886719 443.6546020507812 C 369.7419128417969 443.2527160644531 369.2555541992188 442.8765563964844 368.7521362304688 442.53662109375 L 368.7469177246094 442.5331115722656 L 368.7418518066406 442.5294189453125 C 368.3882751464844 442.271728515625 368.2915649414062 441.7784423828125 368.5216674804688 441.4064025878906 C 368.6762084960938 441.1566467285156 368.9439086914062 441.007568359375 369.23779296875 441.007568359375 C 369.3939514160156 441.007568359375 369.546875 441.0511169433594 369.6800842285156 441.1334533691406 L 369.68603515625 441.1371459960938 L 369.6918334960938 441.1410522460938 C 370.2558288574219 441.521728515625 370.8004455566406 441.9424743652344 371.3105773925781 442.3916320800781 C 371.658935546875 442.6988220214844 371.6924743652344 443.2317504882812 371.3855590820312 443.5798034667969 C 371.2259216308594 443.760986328125 370.9956970214844 443.8649597167969 370.7540283203125 443.8649597167969 Z" stroke="none"/>
      <path d="M 369.2378234863281 441.3575744628906 C 369.0731506347656 441.3575439453125 368.9123229980469 441.4402160644531 368.8193359375 441.5905151367188 C 368.68408203125 441.8092041015625 368.7401733398438 442.0950927734375 368.947998046875 442.2465515136719 C 369.4658203125 442.5962219238281 369.9605102539062 442.9788208007812 370.42919921875 443.39208984375 C 370.6328430175781 443.5716857910156 370.9434814453125 443.5520629882812 371.123046875 443.3483276367188 C 371.3026733398438 443.1446228027344 371.2830200195312 442.833984375 371.0792846679688 442.6543273925781 C 370.5782470703125 442.2131652832031 370.04931640625 441.8045959472656 369.4960327148438 441.43115234375 C 369.4154357910156 441.3813171386719 369.3260498046875 441.3575744628906 369.2378234863281 441.3575744628906 M 369.2377624511719 440.6575622558594 L 369.2378540039062 440.6575622558594 C 369.4590454101562 440.6575927734375 369.6755981445312 440.7192077636719 369.8641052246094 440.8357543945312 L 369.8876342773438 440.8509521484375 C 370.4639892578125 441.2399597167969 371.0205383300781 441.669921875 371.5418701171875 442.1289672851562 C 372.0351867675781 442.56396484375 372.0826416015625 443.3185119628906 371.6480712890625 443.8113098144531 C 371.422119140625 444.0677490234375 371.09619140625 444.2149658203125 370.7540588378906 444.2149658203125 C 370.4638366699219 444.2149658203125 370.1840515136719 444.1091918945312 369.9662475585938 443.9171447753906 C 369.5216674804688 443.525146484375 369.0473022460938 443.1582641601562 368.5562438964844 442.82666015625 L 368.5357055664062 442.812255859375 C 368.0351257324219 442.4474487304688 367.8982238769531 441.7490539550781 368.2239990234375 441.2222900390625 C 368.4428100585938 440.86865234375 368.82177734375 440.6575622558594 369.2377624511719 440.6575622558594 Z" stroke="none" fill="#e7e0d6"/>
    </g>
    <path id="Path_12098" data-name="Path 12098" d="M343.181,619.424" transform="translate(-103.005 -163.146)" fill="#e7e0d6" stroke="#e7e0d6" stroke-width="0.7"/>
    <path id="Path_12099" data-name="Path 12099" d="M236.13,456.268l2.764-.12a15.63,15.63,0,0,0,3.678-1.1,9.1,9.1,0,0,0,1.937,1.1l6.934.657c.244-.024.693-.52.6-.657.049-.374-.1-.907-.863-1.575a9.786,9.786,0,0,1-2.8-3.924,15.606,15.606,0,0,0,3.57-9.92.5.5,0,0,0-1,0,14.6,14.6,0,0,1-3.513,9.487.5.5,0,0,0-.1.477,10.624,10.624,0,0,0,3.177,4.633,1.6,1.6,0,0,1,.538.673c-.029.035-.216.137-.688.145-2.176.04-5.227-.288-7.415-2.069a.5.5,0,0,0-.527-.066,14.668,14.668,0,1,1-6.21-27.927.5.5,0,0,0,0-1,15.64,15.64,0,0,0-2.658,31.068" fill="#e7e0d6" stroke="#e7e0d6" stroke-width="0.7"/>
    <g id="Path_12100" data-name="Path 12100" transform="translate(-124.902 -162.17)" fill="#e7e0d6">
      <path d="M 374.5460815429688 619.5996704101562 C 374.3565063476562 619.5996704101562 374.1441650390625 619.596435546875 373.8982849121094 619.5927734375 L 373.62548828125 619.5888061523438 C 371.6651611328125 619.5618896484375 370.3478698730469 619.0196533203125 369.3860168457031 618.6237182617188 L 369.3009643554688 618.5887451171875 L 369.4680786132812 617.9166870117188 C 370.7505493164062 618.0421752929688 371.8621826171875 618.1589965820312 372.9372253417969 618.2720336914062 C 374.0079650878906 618.3846435546875 375.1151428222656 618.5010375976562 376.39111328125 618.6259155273438 L 376.4626770019531 619.3079223632812 C 375.66943359375 619.55908203125 375.2479858398438 619.5996704101562 374.5460815429688 619.5996704101562 Z" stroke="none"/>
      <path d="M 374.5460815429688 619.2496337890625 C 375.2518615722656 619.2496337890625 375.6290893554688 619.2047729492188 376.3570251464844 618.9742431640625 C 373.798583984375 618.7238159179688 371.9924011230469 618.5153198242188 369.4339904785156 618.2650146484375 C 370.3816223144531 618.6543579101562 371.6788024902344 619.2120361328125 373.6302795410156 619.2388305664062 C 373.9984436035156 619.243896484375 374.2933349609375 619.2496337890625 374.5460815429688 619.2496337890625 M 374.5460815429688 619.9496459960938 C 374.35400390625 619.9496459960938 374.1405639648438 619.9464721679688 373.8934326171875 619.9427490234375 L 373.6206665039062 619.9387817382812 C 371.5936279296875 619.9109497070312 370.2406616210938 619.35400390625 369.2527770996094 618.9473876953125 L 369.16796875 618.9124755859375 L 369.5021362304688 617.568359375 C 370.785888671875 617.6939086914062 371.8981628417969 617.8108520507812 372.9738159179688 617.9239501953125 C 374.0439453125 618.0364379882812 375.1505126953125 618.15283203125 376.4252319335938 618.277587890625 L 376.568359375 619.6416015625 C 375.7359924316406 619.9051513671875 375.2717895507812 619.9496459960938 374.5460815429688 619.9496459960938 Z" stroke="none" fill="#e7e0d6"/>
    </g>
    <g id="Path_12101" data-name="Path 12101" transform="translate(-101.112 -83.307)" fill="#e7e0d6">
      <path d="M 345.1025695800781 525.8511352539062 C 345.1025695800781 525.8511352539062 345.1025695800781 525.8511352539062 345.1025390625 525.8511352539062 L 345.1010437011719 525.8511352539062 L 345.0952758789062 525.85107421875 L 345.070556640625 525.85107421875 L 345.0610046386719 525.85107421875 L 345.0514526367188 525.8505859375 L 341.4501342773438 525.6536254882812 L 341.4398803710938 525.6530151367188 C 341.2148742675781 525.6388549804688 341.0094604492188 525.5382080078125 340.8608093261719 525.3695678710938 C 340.712158203125 525.200927734375 340.6381225585938 524.9844970703125 340.6523132324219 524.7601318359375 C 340.6803588867188 524.3179931640625 341.0489807128906 523.9716796875 341.4915161132812 523.9716796875 C 341.5093688964844 523.9716796875 341.5274047851562 523.9722290039062 341.5455017089844 523.973388671875 L 345.1434020996094 524.1690063476562 C 345.5951843261719 524.189208984375 345.9483337402344 524.5618896484375 345.9440307617188 525.0172729492188 C 345.9400024414062 525.4769287109375 345.5625305175781 525.8511352539062 345.1025695800781 525.8511352539062 Z" stroke="none"/>
      <path d="M 341.4915161132812 524.3216552734375 C 341.2342834472656 524.3216552734375 341.0181274414062 524.5219116210938 341.0016174316406 524.7822265625 C 340.9844665527344 525.0531616210938 341.1902465820312 525.28662109375 341.4612121582031 525.3036499023438 L 341.46923828125 525.3041381835938 L 345.0982666015625 525.5010986328125 C 345.0997009277344 525.5010986328125 345.1011352539062 525.5010986328125 345.1025695800781 525.5010986328125 C 345.3720397949219 525.5010986328125 345.5916748046875 525.2839965820312 345.5940551757812 525.0139770507812 C 345.5965576171875 524.749267578125 345.388916015625 524.5303344726562 345.1243896484375 524.5184936523438 L 341.5232238769531 524.3226928710938 C 341.5126037597656 524.322021484375 341.5020141601562 524.3216552734375 341.4915161132812 524.3216552734375 M 341.491455078125 523.6217041015625 C 341.5154113769531 523.6217041015625 341.5394897460938 523.6223754882812 341.5635986328125 523.6238403320312 L 345.159912109375 523.8193969726562 C 345.8023071289062 523.850341796875 346.3001098632812 524.3771362304688 346.2940368652344 525.0205688476562 C 346.288330078125 525.6713256835938 345.7538146972656 526.2011108398438 345.1025695800781 526.2011108398438 L 345.0323181152344 526.2000732421875 L 341.4185791015625 526.0023193359375 C 341.099609375 525.9822998046875 340.8087158203125 525.8397827148438 340.5982360839844 525.6010131835938 C 340.3877563476562 525.3621826171875 340.2828979492188 525.0557250976562 340.3030090332031 524.738037109375 C 340.3427124023438 524.1119995117188 340.86474609375 523.6217041015625 341.491455078125 523.6217041015625 Z" stroke="none" fill="#e7e0d6"/>
    </g>
    <g id="Path_12102" data-name="Path 12102" transform="translate(-89.42 -45.539)" fill="#e7e0d6">
      <path d="M 327.5260314941406 483.9792785644531 C 327.5260009765625 483.9792785644531 327.5260009765625 483.9792785644531 327.5259704589844 483.9792785644531 C 327.4150390625 483.9792785644531 327.3072509765625 483.9578247070312 327.2050170898438 483.9154663085938 L 327.2006530761719 483.9143981933594 L 327.1687316894531 483.8995666503906 C 326.7486572265625 483.702880859375 326.5666198730469 483.2010498046875 326.7629699707031 482.7808837890625 L 328.2988891601562 479.4891357421875 C 328.4364624023438 479.1937561035156 328.7361755371094 479.0027465820312 329.062255859375 479.0027465820312 C 329.1856994628906 479.0027465820312 329.3052368164062 479.0293273925781 329.4176330566406 479.0816955566406 C 329.83837890625 479.2778015136719 330.021240234375 479.7796630859375 329.8252258300781 480.2004089355469 L 328.2925109863281 483.4862365722656 L 328.2890014648438 483.493896484375 C 328.151123046875 483.7887573242188 327.8516235351562 483.9792785644531 327.5260314941406 483.9792785644531 Z" stroke="none"/>
      <path d="M 327.5260009765625 483.6293029785156 C 327.7110900878906 483.6293029785156 327.8883972167969 483.5243225097656 327.9719543457031 483.3456420898438 L 327.972412109375 483.3445434570312 L 329.5079650878906 480.0526123046875 C 329.6227416992188 479.8062133789062 329.5159912109375 479.5137023925781 329.2697448730469 479.39892578125 C 329.0235900878906 479.2842102050781 328.7308349609375 479.3907470703125 328.6160583496094 479.6371154785156 L 327.0800476074219 482.9290771484375 C 326.9651184082031 483.1750183105469 327.0713806152344 483.467529296875 327.3171691894531 483.5826110839844 L 327.3177795410156 483.582763671875 C 327.3851928710938 483.6143493652344 327.4561767578125 483.6292724609375 327.5260009765625 483.6293029785156 M 327.5260314941406 484.3292846679688 C 327.3782653808594 484.3292846679688 327.2345275878906 484.302490234375 327.0976257324219 484.2494812011719 L 327.0835266113281 484.2460021972656 L 327.0203247070312 484.216552734375 C 326.4255981445312 483.9380798339844 326.1679077148438 483.2275695800781 326.4458618164062 482.6327209472656 L 327.9817199707031 479.3411254882812 C 328.1764221191406 478.9231262207031 328.6006469726562 478.6527709960938 329.062255859375 478.6527709960938 C 329.2371520996094 478.6527709960938 329.4064636230469 478.6903381347656 329.5654907226562 478.7644653320312 C 330.1611022949219 479.0420837402344 330.4199829101562 479.7525329589844 330.1424865722656 480.3481750488281 L 328.6060485839844 483.6421508789062 C 328.4108581542969 484.0595703125 327.9869384765625 484.3292846679688 327.5260314941406 484.3292846679688 Z" stroke="none" fill="#e7e0d6"/>
    </g>
    <g id="Path_12103" data-name="Path 12103" transform="translate(-97.556 -55.868)" fill="#e7e0d6">
      <path d="M 337.2818603515625 495.9473571777344 C 336.9924621582031 495.9473571777344 336.7213745117188 495.7967224121094 336.5683898925781 495.5525512695312 L 336.5666198730469 495.5502319335938 L 336.5552062988281 495.5309753417969 C 336.3206481933594 495.1308898925781 336.4552001953125 494.6142883300781 336.8551330566406 494.3794250488281 L 341.8447265625 491.4264221191406 C 341.9749450683594 491.3497924804688 342.1224975585938 491.3095397949219 342.2721862792969 491.3095397949219 C 342.569580078125 491.3095397949219 342.8479309082031 491.46875 342.9985656738281 491.7250061035156 C 343.1126098632812 491.9187622070312 343.1443481445312 492.1455078125 343.0878601074219 492.3633117675781 C 343.0314025878906 492.5810546875 342.8934631347656 492.7638244628906 342.6995239257812 492.8778991699219 L 337.7224731445312 495.8225402832031 L 337.721923828125 495.8229370117188 L 337.707275390625 495.8316040039062 C 337.5781555175781 495.9073181152344 337.4310607910156 495.9473571777344 337.2818603515625 495.9473571777344 Z" stroke="none"/>
      <path d="M 337.2818603515625 495.5973510742188 C 337.3663940429688 495.5973510742188 337.4520568847656 495.5755310058594 337.5302124023438 495.5296936035156 L 337.5308532714844 495.5292358398438 L 342.5220642089844 492.5762329101562 C 342.7565002441406 492.4383239746094 342.8347473144531 492.1366577148438 342.6968383789062 491.9023742675781 C 342.55908203125 491.6679992675781 342.2574157714844 491.5896606445312 342.0229797363281 491.7276306152344 L 337.0323791503906 494.6812133789062 C 336.7982788085938 494.8186950683594 336.7198791503906 495.1198425292969 336.8571472167969 495.3539733886719 L 336.8576354980469 495.3546142578125 C 336.9490966796875 495.5105590820312 337.1132507324219 495.5973510742188 337.2818603515625 495.5973510742188 M 337.2818603515625 496.29736328125 C 336.8782348632812 496.29736328125 336.4996643066406 496.0902404785156 336.2814025878906 495.7534790039062 L 336.2756042480469 495.7458801269531 L 336.2532653808594 495.7080078125 C 335.9211730957031 495.1415405273438 336.1116638183594 494.41015625 336.6779174804688 494.0776062011719 L 341.6664733886719 491.1252136230469 C 341.8511657714844 491.0165405273438 342.0600891113281 490.9595336914062 342.2721862792969 490.9595336914062 C 342.693115234375 490.9595336914062 343.0870971679688 491.1849060058594 343.3003234863281 491.5476684570312 C 343.4617004394531 491.8218383789062 343.5066223144531 492.142822265625 343.4266662597656 492.451171875 C 343.3467102050781 492.7594299316406 343.1514892578125 493.0180969238281 342.8769836425781 493.1795959472656 L 337.8843688964844 496.1334838867188 C 337.7015991210938 496.2406921386719 337.4932556152344 496.29736328125 337.2818603515625 496.29736328125 Z" stroke="none" fill="#e7e0d6"/>
    </g>
  </g>
</svg>
