<svg xmlns="http://www.w3.org/2000/svg" width="25" height="25" viewBox="0 0 25 25">
  <g id="Group_16763" data-name="Group 16763" transform="translate(-176 -700.04)">
    <path id="phone-193" d="M76.5,92.328a12.42,12.42,0,0,1-4.844-.973.893.893,0,0,1,.694-1.646,10.716,10.716,0,1,0-4.929-4.191.893.893,0,0,1-1.512.949A12.5,12.5,0,1,1,76.5,92.328Z" transform="translate(112 632.712)" fill="#f5f0ea"/>
    <path id="phone-193-2" data-name="phone-193" d="M72.51,88.616v.033c-.181,0-.314.014-.392.014h-.092a3.574,3.574,0,0,1-.107-7.146l.112-.005a3.478,3.478,0,0,1,2.064.678c.858.3,1.725-.121,2.572-1.256s1.021-2.021.527-2.657a3.561,3.561,0,0,1-.513-.455,1.013,1.013,0,0,1-.083-.092,3.53,3.53,0,0,1,2.541-5.883l.109,0A3.556,3.556,0,0,1,82.7,74.609c.288.889,1.024,4.413-2.516,9.147C76.905,88.142,73.726,88.616,72.51,88.616ZM72.4,86.828c.529.012,3.309-.062,6.351-4.141,3.107-4.155,2.4-7.07,2.226-7.612a1.759,1.759,0,0,0-3.489.369,1.741,1.741,0,0,0,.462,1.115l.019.022a1.737,1.737,0,0,0,.322.281.877.877,0,0,1,.179.155c.547.617,1.607,2.339-.371,4.984a4.339,4.339,0,0,1-3.46,2.069,3.433,3.433,0,0,1-1.326-.271.9.9,0,0,1-.208-.122,1.732,1.732,0,0,0-1.072-.384,1.778,1.778,0,0,0-1.285.55,1.762,1.762,0,0,0,1.28,2.968s.005,0,0,0c.033-.005.07-.01.091-.012A1.149,1.149,0,0,1,72.4,86.828Z" transform="translate(111.778 633.266)" fill="#f5f0ea" opacity="0.3"/>
  </g>
</svg>
