<svg xmlns="http://www.w3.org/2000/svg" width="22" height="23.817" viewBox="0 0 22 23.817">
  <g id="Group_7907" data-name="Group 7907" transform="translate(-178.75 -242.751)">
    <path id="Path_2128" data-name="Path 2128" d="M500.549,175.468s-.628,8.726-.992,12.4c-.174,1.755-1.142,2.784-2.728,2.817-3.018.061-6.039.065-9.056-.006-1.526-.035-2.478-1.077-2.648-2.8-.367-3.708-.991-12.41-.991-12.41" transform="translate(-302.591 74.836)" fill="none" stroke="#e7e0d6" stroke-linecap="round" stroke-linejoin="round" stroke-width="2"/>
    <path id="Path_2129" data-name="Path 2129" d="M502.75,172.24h-20" transform="translate(-303 76.031)" fill="none" stroke="#e7e0d6" stroke-linecap="round" stroke-linejoin="round" stroke-width="2"/>
    <path id="Path_2130" data-name="Path 2130" d="M497.552,173.271a1.923,1.923,0,0,1-1.787-1.715l-.269-1.575a1.473,1.473,0,0,0-1.369-1.229h-4.684a1.473,1.473,0,0,0-1.369,1.229l-.269,1.575a1.923,1.923,0,0,1-1.787,1.715" transform="translate(-302.034 75)" fill="none" stroke="#e7e0d6" stroke-linecap="round" stroke-linejoin="round" stroke-width="2"/>
  </g>
</svg>
