<svg xmlns="http://www.w3.org/2000/svg" width="13.108" height="13.467" viewBox="0 0 13.108 13.467">
  <g id="Group_16808" data-name="Group 16808" transform="translate(-140.971 -410.256)">
    <path id="Path_12113" data-name="Path 12113" d="M161.195,420.741h-4.32a.6.6,0,0,1,0-1.206h4.32a.6.6,0,1,1,0,1.206Zm-1.13,2.588h-3.19a.6.6,0,0,1,0-1.206h3.19a.6.6,0,0,1,0,1.206Z" transform="translate(-10.64 -6.453)" fill="#b3a797"/>
    <path id="Path_12114" data-name="Path 12114" d="M152.873,410.256h-8.957a1.208,1.208,0,0,0-1.206,1.206v7.544a2.125,2.125,0,0,0-1.739,1.958v.719a2.252,2.252,0,0,0,2.412,2.039h5.957c2.879,0,4.739-2.214,4.739-5.643v-6.617a1.208,1.208,0,0,0-1.206-1.206Zm-9.49,12.261c-.642,0-1.206-.39-1.206-.833v-.719c0-.452.552-.833,1.206-.833h3.925a2.256,2.256,0,0,0,.164,2.386h-4.09Zm5.929-.261a1.063,1.063,0,1,1,1.062-1.062,1.063,1.063,0,0,1-1.062,1.062Zm3.562-4.177a4.862,4.862,0,0,1-1.37,3.687,2.259,2.259,0,0,0-2.192-2.843h-5.4v-7.462h8.957v6.617Z" transform="translate(0 0)" fill="#b3a797"/>
  </g>
</svg>
