<svg xmlns="http://www.w3.org/2000/svg" xmlns:xlink="http://www.w3.org/1999/xlink" width="50" height="54.808" viewBox="0 0 50 54.808">
  <defs>
    <clipPath id="clip-path">
      <rect id="Rectangle_86" data-name="Rectangle 86" width="50" height="54.808" transform="translate(-0.153 -0.441)" fill="#fff"/>
    </clipPath>
  </defs>
  <g id="Group_16703" data-name="Group 16703" transform="translate(0.153 0.441)" clip-path="url(#clip-path)">
    <path id="Path_10197" data-name="Path 10197" d="M254.436,338.787a.887.887,0,0,0-1.229,0l-3.078,2.974-.923-.893a3.2,3.2,0,0,0-4.306,0,2.882,2.882,0,0,0,0,4.165l.264.255h-4.413a1.714,1.714,0,0,0-1.74,1.683v3.736a5.383,5.383,0,0,0-1.8-.313,5.281,5.281,0,0,0-3.693,1.479,4.924,4.924,0,0,0-1.379,4.7,3.227,3.227,0,0,0-3.85.357,2.882,2.882,0,0,0,0,4.164l.264.255h-4.413a1.715,1.715,0,0,0-1.741,1.683v3.744a3.126,3.126,0,0,0-4.3.005,2.878,2.878,0,0,0,0,4.163l.923.893-2.627,2.54a.842.842,0,0,0-.257.6,1.741,1.741,0,1,1-1.74-1.683.841.841,0,1,0,0-1.682,3.367,3.367,0,1,0,3.44,3.753l2.413-2.333.923.891a3.126,3.126,0,0,0,4.307,0,2.878,2.878,0,0,0,.007-4.158h3.874a1.714,1.714,0,0,0,1.74-1.682v-4.267l.265.255a3.127,3.127,0,0,0,4.309,0,2.877,2.877,0,0,0,.374-3.721,5.374,5.374,0,0,0,1.163.141,5.294,5.294,0,0,0,3.692-1.476,4.908,4.908,0,0,0,1.206-5.311h3.867a1.714,1.714,0,0,0,1.74-1.682v-4.266l.264.255a3.127,3.127,0,0,0,4.309,0,2.878,2.878,0,0,0,0-4.163l-.923-.893,3.078-2.974A.828.828,0,0,0,254.436,338.787Zm-30.19,33.942a1.341,1.341,0,0,1-1.845,0l-3.078-2.974a1.234,1.234,0,0,1,0-1.784,1.342,1.342,0,0,1,1.848,0l3.076,2.974a1.237,1.237,0,0,1,0,1.784Zm5.11-4.651-5.221,0v-5.045h5.221Zm5.083-5.2a1.38,1.38,0,0,1-1.847,0l-3.076-2.974a1.237,1.237,0,0,1,0-1.785,1.344,1.344,0,0,1,1.847,0l3.076,2.974A1.236,1.236,0,0,1,234.439,362.878Zm5.229-5.056a3.573,3.573,0,0,1-4.923,0,3.291,3.291,0,0,1,0-4.76,3.577,3.577,0,0,1,4.392-.423,1.71,1.71,0,0,0,.969.937,3.286,3.286,0,0,1-.439,4.246Zm6.3-5.8-4.94,0c-.044-.048-.085-.1-.133-.143s-.1-.085-.15-.129v-4.772h5.22v5.047Zm5.081-5.2a1.38,1.38,0,0,1-1.847,0l-3.076-2.974a1.235,1.235,0,0,1,0-1.784,1.34,1.34,0,0,1,1.847,0l3.076,2.972A1.236,1.236,0,0,1,251.052,346.817Z" transform="translate(-205.941 -325.239)" fill="#fff"/>
    <path id="Path_10198" data-name="Path 10198" d="M213.881,366.437l3.013-2.913,1.847,1.785a1.786,1.786,0,0,0,2.461,0l1.847-1.784a1.643,1.643,0,0,0,.507-1.19,1.626,1.626,0,0,0-.277-.911,5.261,5.261,0,0,0,3.462-1.467,4.936,4.936,0,0,0,1.517-3.347,1.79,1.79,0,0,0,.944.269,1.767,1.767,0,0,0,1.231-.492l1.847-1.785a1.644,1.644,0,0,0,.228-2.1,5.263,5.263,0,0,0,3.462-1.467,4.93,4.93,0,0,0,1.519-3.347,1.787,1.787,0,0,0,2.173-.223l1.847-1.784a1.645,1.645,0,0,0,.223-2.114,5.279,5.279,0,0,0,3.469-1.456,4.913,4.913,0,0,0,.561-6.489l1.286-1.243a.82.82,0,0,0,0-1.189.889.889,0,0,0-1.231,0l-1.292,1.25a5.35,5.35,0,0,0-6.707.534,4.927,4.927,0,0,0-1.519,3.35,1.84,1.84,0,0,0-2.173.219l-1.847,1.784a1.648,1.648,0,0,0-.223,2.114,5.268,5.268,0,0,0-3.469,1.454,4.936,4.936,0,0,0-1.5,3.353,1.79,1.79,0,0,0-2.187.216l-1.847,1.784a1.642,1.642,0,0,0-.23,2.1,5.267,5.267,0,0,0-3.462,1.467,4.929,4.929,0,0,0-1.5,3.357,1.842,1.842,0,0,0-2.187.212l-1.845,1.784a1.642,1.642,0,0,0,0,2.379l1.845,1.784-3.527,3.409c-.005.005-.012.007-.015.01a.822.822,0,0,0,0,1.19,1.648,1.648,0,0,1,0,2.379,1.787,1.787,0,0,1-2.462,0,1.645,1.645,0,0,1,0-2.379.822.822,0,0,0,0-1.19.893.893,0,0,0-1.231,0,3.291,3.291,0,0,0,0,4.76,3.576,3.576,0,0,0,4.925,0A3.28,3.28,0,0,0,213.881,366.437Zm25.165-30.274a3.569,3.569,0,0,1,4.923,0,3.287,3.287,0,0,1,0,4.758,3.569,3.569,0,0,1-4.923,0,3.284,3.284,0,0,1,0-4.758Zm-3.692,3.569,4.923,4.758-1.847,1.784-4.923-4.758Zm-5.538,5.353a3.573,3.573,0,0,1,4.923,0,3.289,3.289,0,0,1,0,4.76,3.654,3.654,0,0,1-4.921,0l-.005,0A3.29,3.29,0,0,1,229.816,345.086Zm-3.692,3.569,4.923,4.758L229.2,355.2l-4.921-4.758Zm-5.538,5.353a3.569,3.569,0,0,1,4.923,0,3.284,3.284,0,0,1,0,4.758,3.653,3.653,0,0,1-4.923,0A3.289,3.289,0,0,1,220.586,354.008Zm-3.692,3.569,4.923,4.758-1.848,1.782-4.919-4.756Z" transform="translate(-208.395 -329.159)" fill="#e7e0d6"/>
  </g>
</svg>
