<svg xmlns="http://www.w3.org/2000/svg" width="20.5" height="15.501" viewBox="0 0 20.5 15.501">
  <path id="users-73" d="M18.5,168.6H7.5A1.5,1.5,0,0,1,6,167.1a3.983,3.983,0,0,1,.924-2.315,5.262,5.262,0,0,1,2.128-1.522A10.456,10.456,0,0,1,13,162.6a10.48,10.48,0,0,1,3.948.662,5.262,5.262,0,0,1,2.128,1.522A3.974,3.974,0,0,1,20,167.1a1.5,1.5,0,0,1-1.5,1.5ZM7,167.1a.5.5,0,0,0,.5.5h11a.5.5,0,0,0,.5-.5,3.05,3.05,0,0,0-.739-1.734c-.974-1.157-2.793-1.768-5.261-1.768s-4.287.612-5.261,1.768A3.052,3.052,0,0,0,7,167.1Zm6-5.5a4,4,0,1,1,4-4A4,4,0,0,1,13,161.6Zm0-7a3,3,0,1,0,3,3A3,3,0,0,0,13,154.6Zm-8.5,14h-3A1.5,1.5,0,0,1,0,167.1a3.261,3.261,0,0,1,.663-1.8A3.808,3.808,0,0,1,2.2,164.112,6.914,6.914,0,0,1,5,163.6c.179,0,.356,0,.527.014a.5.5,0,1,1-.053,1Q5.239,164.6,5,164.6c-3.894,0-4,2.379-4,2.5a.5.5,0,0,0,.5.5h3a.5.5,0,1,1,0,1Zm.5-6a3,3,0,1,1,3-3A3,3,0,0,1,5,162.6Zm0-5a2,2,0,1,0,2,2A2,2,0,0,0,5,157.6Z" transform="translate(0.25 -153.35)" fill="#10251c" stroke="#10251c" stroke-width="0.5"/>
</svg>
