<svg xmlns="http://www.w3.org/2000/svg" width="21" height="22.125" viewBox="0 0 21 22.125">
  <path id="Path_10167" data-name="Path 10167" d="M177.157,773.771v-3.066a1.426,1.426,0,0,1,1.424-1.419h2.886a1.426,1.426,0,0,1,1.434,1.419v3.076A1.224,1.224,0,0,0,184.1,775h1.924a3.456,3.456,0,0,0,3.473-3.438v-8.724a2.437,2.437,0,0,0-.962-1.905l-6.58-5.248a3.183,3.183,0,0,0-3.945,0l-6.551,5.258a2.417,2.417,0,0,0-.962,1.9v8.715A3.456,3.456,0,0,0,173.973,775H175.9a1.235,1.235,0,0,0,1.241-1.229" transform="translate(-169.5 -753.875)" fill="none" stroke="#fff" stroke-linecap="round" stroke-linejoin="round" stroke-width="2"/>
</svg>
