<svg xmlns="http://www.w3.org/2000/svg" width="23.81" height="22.62" viewBox="0 0 23.81 22.62">
  <g id="Group_16851" data-name="Group 16851" transform="translate(0 -12.19)">
    <path id="Path_12162" data-name="Path 12162" d="M123.1,142.134h9.524a1.054,1.054,0,1,0,0-2.091H123.1a1.054,1.054,0,1,0,0,2.091" transform="translate(-115.957 -121.61)" fill="#f5f0ea"/>
    <path id="Path_12163" data-name="Path 12163" d="M123.1,238.566h5.358a1.079,1.079,0,1,0,0-2.147H123.1a1.079,1.079,0,1,0,0,2.147" transform="translate(-115.957 -213.28)" fill="#f5f0ea"/>
    <path id="Path_12164" data-name="Path 12164" d="M9.3,30.938l-1.516.91,0-1.246a1.19,1.19,0,0,0-1.19-1.19H4.209c-1.314,0-2.378-1.62-2.381-2.935V16.4c0-1.314,1.62-2.379,2.935-2.381H19.048c1.314,0,2.932,1.066,2.935,2.381v4.8c0,.658.253,1.159.91,1.159s.917-.5.917-1.159v-4.25a4.763,4.763,0,0,0-4.762-4.762H4.762A4.763,4.763,0,0,0,0,16.952v9.524a4.763,4.763,0,0,0,4.762,4.762h1.19V33.62a1.191,1.191,0,0,0,1.8,1.021l2.768-1.661A1.191,1.191,0,0,0,9.3,30.938Z" transform="translate(0 0)" fill="#f5f0ea"/>
    <path id="Path_12165" data-name="Path 12165" d="M263.411,263.516l-.267-.946-2.268,1.189-.445.446.717.072-.447-.138c-.091,0,.26-.425.177-.381l.27.519v-.585l-.447,1.032.518-.27c-.1-.2.138-.763-.071-.762v.584l.087-.393-.869,1.015.949-.153-.012-.076.27-1.567c.054-.314.249-1.286.021-1.507l-1.886-2.027.028.576-.438-.155h.588a1.47,1.47,0,0,0-.225-.7l.085.7h.14c.108-.112.448.144.447,0l-.62-.325-.192.113-.492-.048.435.857.524-.039,1.594-.457a2.375,2.375,0,0,0,1.164-.827l1.188-1.665v0l-.523-.26v.584a.586.586,0,0,0,.523-.324l-.523-.26v0l-.261.524a.588.588,0,0,0,.261.061v-.585l-.261.524.428-.861-.68.68.058.058,1.067,1.565a2.667,2.667,0,0,0,.966.635l2,.631h0l.084-.581h-.139c0,.291-.237.537.056.581l.084-.581h0l-.13-.083-.453.083h.583l-.577-.083,1.4.137-.857-.435-.037.072-1.575,1.53a.992.992,0,0,0-.378,1.133l.5,2.484h0l.128-.547h-.584l.009.1.575-.1-.136.447.139-.447.347-.131c-.286.051-.934-.153-.934.131h.586l.139.2.372.613.151-.95-.084-.013-1.948-1.021a2.994,2.994,0,0,0-1.16-.541l.267.946-.446.852,2.089,1.094a.94.94,0,0,0,.295.1l.239.038a.951.951,0,0,0,.315,0,1.336,1.336,0,0,0,1.109-1.316l-.02-.228h0l-.312-1.818L268,260.947a.958.958,0,0,0,.187-.254l.109-.215a.947.947,0,0,0,.095-.3l.014-.19a1.336,1.336,0,0,0-1.146-1.322h0l-1.835-.266-.82-1.656a.941.941,0,0,0-.182-.253l-.17-.17a.935.935,0,0,0-.252-.181,1.338,1.338,0,0,0-1.794.6v0l-.82,1.656-1.835.266a.947.947,0,0,0-.3.094l-.218.11a.972.972,0,0,0-.256.189,1.335,1.335,0,0,0,.032,1.889l0,0,1.326,1.288-.313,1.819a.957.957,0,0,0,0,.316l.038.234a1.009,1.009,0,0,0,.1.291,1.338,1.338,0,0,0,1.8.569h0l2.088-1.094-.446-.852-.446.852Z" transform="translate(-244.792 -230.905)" fill="#f5f0ea" opacity="0.3"/>
  </g>
</svg>
