<svg xmlns="http://www.w3.org/2000/svg" width="21.307" height="25" viewBox="0 0 21.307 25">
  <g id="Group_16764" data-name="Group 16764" transform="translate(-86.174 -698.594)">
    <path id="address-57" d="M201.409,80.405a10.528,10.528,0,0,0-7.08-3.383c-.133-.01-.269-.016-.4-.019-.091,0-.185,0-.275,0s-.178,0-.265,0c-.136,0-.269.01-.4.019a10.549,10.549,0,0,0-7.079,3.383,10.9,10.9,0,0,0-2.9,7.432v.11a11.329,11.329,0,0,0,1.5,5.179c.783,1.457,1.874,2.315,3.24,3.829.282.311.573.622.868.926a37.055,37.055,0,0,0,4.522,3.946.9.9,0,0,0,.531.172.783.783,0,0,0,.152-.013.925.925,0,0,0,.592-.379.946.946,0,0,0,.155-.7.922.922,0,0,0-.375-.6,36,36,0,0,1-3.655-3.127c-.327-.32-.644-.641-.942-.955-2.172-2.289-4.765-5.069-4.765-8.387a9.036,9.036,0,0,1,4.419-7.782,8.779,8.779,0,0,1,4.276-1.2h.278c.045,0,.094,0,.139,0a8.77,8.77,0,0,1,4.137,1.2,9.036,9.036,0,0,1,4.419,7.782c0,3.318-2.59,6.1-4.765,8.387-.3.317-.618.641-.945.955-.3.3-.625.6-.955.9l-.01,0-.049.049a1,1,0,0,0-.032,1.324l.016.019.019.019.019.016a1.077,1.077,0,0,0,.628.217.9.9,0,0,0,.5-.152l.032-.016L197,99.52c.019-.016.039-.032.055-.049.576-.521,1.13-1.055,1.648-1.586.3-.308.592-.622.868-.926,1.366-1.515,2.457-2.373,3.24-3.829a11.358,11.358,0,0,0,1.5-5.179v-.11a10.88,10.88,0,0,0-2.9-7.436Z" transform="translate(-96.826 621.594)" fill="#f5f0ea"/>
    <path id="address-57-2" data-name="address-57" d="M197.162,83.545a1,1,0,1,0,.923.919A1,1,0,0,0,197.162,83.545Zm.664,2.985c-.651,0-.806.7-.806.961v0a3.354,3.354,0,0,1-5.461,2.612,3.355,3.355,0,0,1,2.094-5.966h.006c.113,0,.227.006.34.016a.919.919,0,0,0,.948-.563l.019-.045a.91.91,0,0,0-.735-1.243,5.072,5.072,0,0,0-.628-.039,5.19,5.19,0,0,0-4.111,2,5.221,5.221,0,0,0,5.671,8.2,5.218,5.218,0,0,0,3.661-4.982v-.013a.926.926,0,0,0-1-.948Z" transform="translate(-96.883 621.733)" fill="#f5f0ea" opacity="0.3"/>
  </g>
</svg>
