<svg xmlns="http://www.w3.org/2000/svg" width="21" height="27.243" viewBox="0 0 21 27.243">
  <g id="Group_16798" data-name="Group 16798" transform="translate(-132.914 -85.462)">
    <g id="Group_16797" data-name="Group 16797" transform="translate(132.914 85.462)">
      <path id="Path_12105" data-name="Path 12105" d="M142.685,97.329a2.74,2.74,0,1,0,2.74-2.739A2.742,2.742,0,0,0,142.685,97.329Z" transform="translate(-134.925 -87.341)" fill="none"/>
      <path id="Path_12106" data-name="Path 12106" d="M147.378,116.735a11.464,11.464,0,0,1-1.551,1.738,1.174,1.174,0,0,1-.669.314,1.071,1.071,0,0,1-.629-.314c-.039-.039-.039-.118-.079-.157a31.461,31.461,0,0,1-2.28-2.752,3.95,3.95,0,0,0-.589-.55" transform="translate(-134.698 -91.544)" fill="#e7e0d6"/>
      <path id="Path_12107" data-name="Path 12107" d="M149.4,116.391c-.147.183-.293.367-.441.549" transform="translate(-136.216 -91.827)" fill="#e7e0d6"/>
      <path id="Path_12108" data-name="Path 12108" d="M150.039,115.649q-.145.177-.289.357" transform="translate(-136.379 -91.675)" fill="#e7e0d6"/>
      <path id="Path_12109" data-name="Path 12109" d="M148.133,107.456c.264-.347.531-.7.8-1.071,3.305-4.523,4.982-8.03,4.982-10.424a10.5,10.5,0,1,0-21,0c0,2.394,1.677,5.9,4.982,10.424.27.369.539.73.805,1.079l1.136,1.456c1.6,2,2.861,3.382,2.933,3.461a.872.872,0,0,0,1.287,0c.072-.079,1.335-1.462,2.94-3.47m-3.583,1.573c-2.937-3.34-8.755-10.74-8.755-14.522a8.755,8.755,0,1,1,17.51,0C152.168,99.741,146.35,107.143,143.414,110.484Z" transform="translate(-132.914 -85.462)" fill="#e7e0d6"/>
      <path id="Path_12110" data-name="Path 12110" d="M144.973,101.362a4.485,4.485,0,1,0-4.486-4.486A4.49,4.49,0,0,0,144.973,101.362Zm2.74-4.486a2.74,2.74,0,1,1-2.74-2.739A2.743,2.743,0,0,1,147.713,96.877Z" transform="translate(-134.473 -86.888)" fill="#e7e0d6"/>
    </g>
  </g>
</svg>
