<svg xmlns="http://www.w3.org/2000/svg" width="25" height="25" viewBox="0 0 25 25">
  <g id="Group_16762" data-name="Group 16762" transform="translate(-267 -698)">
    <path id="category-18" d="M104.654,121H98.885A2.885,2.885,0,0,1,96,118.115v-5.769a2.885,2.885,0,0,1,2.885-2.885h5.769a2.885,2.885,0,0,1,2.885,2.885v5.769A2.885,2.885,0,0,1,104.654,121Zm-5.769-9.615a.962.962,0,0,0-.962.962v5.769a.962.962,0,0,0,.962.962h5.769a.962.962,0,0,0,.962-.962v-5.769a.962.962,0,0,0-.962-.962Zm5.769-3.846H98.885A2.885,2.885,0,0,1,96,104.654V98.885A2.885,2.885,0,0,1,98.885,96h5.769a2.885,2.885,0,0,1,2.885,2.885v5.769A2.885,2.885,0,0,1,104.654,107.538Zm-5.769-9.615a.962.962,0,0,0-.962.962v5.769a.962.962,0,0,0,.962.962h5.769a.962.962,0,0,0,.962-.962V98.885a.962.962,0,0,0-.962-.962Zm19.231,9.615h-5.769a2.885,2.885,0,0,1-2.885-2.885V98.885A2.885,2.885,0,0,1,112.346,96h5.769A2.885,2.885,0,0,1,121,98.885v5.769A2.885,2.885,0,0,1,118.115,107.538Zm-5.769-9.615a.962.962,0,0,0-.962.962v5.769a.962.962,0,0,0,.962.962h5.769a.962.962,0,0,0,.962-.962V98.885a.962.962,0,0,0-.962-.962Z" transform="translate(171 602)" fill="#f5f0ea"/>
    <path id="category-18-2" data-name="category-18" d="M116.673,121h-4.327a2.885,2.885,0,0,1-2.885-2.885v-5.769a2.885,2.885,0,0,1,2.885-2.885h5.769A2.885,2.885,0,0,1,121,112.346v4.327a.962.962,0,1,1-1.923,0v-4.327a.962.962,0,0,0-.962-.962h-5.769a.962.962,0,0,0-.962.962v5.769a.962.962,0,0,0,.962.962h4.327a.962.962,0,1,1,0,1.923Z" transform="translate(171 602)" fill="#f5f0ea" opacity="0.3"/>
  </g>
</svg>
