<svg xmlns="http://www.w3.org/2000/svg" width="16.06" height="16.06" viewBox="0 0 16.06 16.06">
  <path id="path" d="M17.027,11.26a6.52,6.52,0,0,1-5.767,5.767v.8a.73.73,0,0,1-1.46,0v-.8A6.387,6.387,0,0,1,4.033,11.26h-.8a.73.73,0,0,1,0-1.46h.8A6.387,6.387,0,0,1,9.8,4.033v-.8a.73.73,0,0,1,1.46,0v.8A6.52,6.52,0,0,1,17.027,9.8h.8a.73.73,0,0,1,0,1.46Zm-6.5,4.38a5.11,5.11,0,1,0-5.11-5.11,5.078,5.078,0,0,0,5.11,5.11Zm0-2.19a2.92,2.92,0,1,1,2.92-2.92,2.929,2.929,0,0,1-2.92,2.92Zm0-1.46a1.46,1.46,0,1,0-1.46-1.46,1.464,1.464,0,0,0,1.46,1.46Z" transform="translate(-2.5 -2.5)" fill="#fff"/>
</svg>
