<svg xmlns="http://www.w3.org/2000/svg" width="31.588" height="34.8" viewBox="0 0 31.588 34.8">
  <g id="user-tag-svgrepo-com" transform="translate(-1.75 -0.76)">
    <path id="Path_12170" data-name="Path 12170" d="M27.24,29.239H26.012a4.828,4.828,0,0,0-3.426,1.406l-2.763,2.731a3.268,3.268,0,0,1-4.573,0l-2.763-2.731A4.856,4.856,0,0,0,9.06,29.239H7.848A4.821,4.821,0,0,1,3,24.44V6.809a4.821,4.821,0,0,1,4.848-4.8H27.24a4.821,4.821,0,0,1,4.848,4.8V24.44A4.831,4.831,0,0,1,27.24,29.239Z" transform="translate(0 0)" fill="none" stroke="#e7e0d6" stroke-linecap="round" stroke-linejoin="round" stroke-miterlimit="10" stroke-width="2.5"/>
    <path id="Path_12171" data-name="Path 12171" d="M13.435,12.871A3.765,3.765,0,1,0,9.67,9.105,3.765,3.765,0,0,0,13.435,12.871Z" transform="translate(4.109 2.051)" fill="none" stroke="#e7e0d6" stroke-linecap="round" stroke-linejoin="round" stroke-width="2.5"/>
    <path id="Path_12172" data-name="Path 12172" d="M20.928,17.668c0-2.909-2.893-5.268-6.464-5.268S8,14.759,8,17.668" transform="translate(3.08 6.4)" fill="none" stroke="#e7e0d6" stroke-linecap="round" stroke-linejoin="round" stroke-width="2.5"/>
  </g>
</svg>
