<svg xmlns="http://www.w3.org/2000/svg" xmlns:xlink="http://www.w3.org/1999/xlink" width="40" height="37.419" viewBox="0 0 40 37.419">
  <defs>
    <clipPath id="clip-path">
      <rect id="Rectangle_87" data-name="Rectangle 87" width="40" height="37.419" fill="#020203"/>
    </clipPath>
  </defs>
  <g id="Group_16704" data-name="Group 16704" clip-path="url(#clip-path)">
    <path id="Path_10199" data-name="Path 10199" d="M160.894,348.875h-2.089a2.419,2.419,0,0,1,.364-1.072l1.146-1.795a1.084,1.084,0,0,0,.013-1.151,1.237,1.237,0,0,0-1.058-.577H143.323a2.148,2.148,0,0,0,.028-.329,2.462,2.462,0,0,0-4.912,0,2.148,2.148,0,0,0,.028.329H126.73a1.237,1.237,0,0,0-1.058.577,1.078,1.078,0,0,0,.013,1.151l1.145,1.793a2.417,2.417,0,0,1,.365,1.074h-2.089a1.973,1.973,0,1,0,0,3.938h2.1v4.465a4.212,4.212,0,0,0,4.332,4.07h1.049c.236.348.547.728.924,1.181.182.218.381.458.594.721l.423.524.56-.395c1.108-.785,1.791-1.37,2.027-2.031h4.387l.1.124c.281.341.591.712.921,1.123l.423.524.56-.4a20.268,20.268,0,0,0,1.782-1.374h3.964c.235.348.547.728.923,1.181.182.218.381.457.594.721l.423.524.56-.395c1.11-.785,1.792-1.37,2.027-2.03h.675a4.212,4.212,0,0,0,4.33-4.071v-4.463h2.1a1.974,1.974,0,1,0,0-3.939Zm-21.053-4.924a1.055,1.055,0,0,1,2.106,0,.883.883,0,0,1-.063.328H139.9A.91.91,0,0,1,139.841,343.951Zm-14.735,7.55a.658.658,0,1,1,0-1.314h2.1V351.5Zm9.689,10.428-.172-.206a9.315,9.315,0,0,1-1-1.328c-.015-.028-.028-.055-.041-.084a.71.71,0,0,1-.04-.114.387.387,0,0,1,.019-.216.5.5,0,0,1,.046-.1.811.811,0,0,1,.061-.093,1.977,1.977,0,0,1,.154-.179c.015-.015.026-.03.043-.046.088-.088.187-.178.3-.27s.234-.191.378-.3l.172.206c.292.352.552.667.746.934,0,0,0,0,0,0a3.31,3.31,0,0,1,.228.352c0,.006.006.013.01.018a.915.915,0,0,1,.1.263.3.3,0,0,1,.006.1C135.768,361.129,135.312,361.534,134.795,361.929Zm8.666-5.614c.043.05.079.1.119.143a11.782,11.782,0,0,1,1.508,2.059l.022.046a1.6,1.6,0,0,1,.07.187c0,.008,0,.015.006.023a.956.956,0,0,1,.017.488.653.653,0,0,1-.026.092c-.005.016-.013.034-.019.049a2.389,2.389,0,0,1-.476.652c-.057.057-.114.114-.178.174l-.142.135c-.312.281-.7.585-1.142.91l-.5-.609-.154-.185-.157-.191c-.1-.119-.188-.231-.279-.341-.025-.031-.049-.062-.074-.09-.08-.1-.155-.195-.228-.288l-.084-.108c-.07-.09-.135-.179-.2-.265-.021-.028-.039-.055-.058-.081-.063-.09-.123-.177-.175-.259l-.03-.049c-.055-.089-.106-.175-.148-.257l-.008-.018a1.245,1.245,0,0,1-.174-.721c.08-.557.845-1.253,2.009-2.108C143.133,355.919,143.3,356.121,143.461,356.315Zm8,5.614c-.058-.071-.116-.139-.172-.206a9.273,9.273,0,0,1-1-1.334c-.013-.025-.025-.049-.036-.074a.725.725,0,0,1-.045-.132.386.386,0,0,1,.022-.2.574.574,0,0,1,.048-.106c.017-.028.036-.059.059-.092a2.23,2.23,0,0,1,.155-.179c.015-.016.026-.03.043-.046.088-.086.188-.178.3-.27s.232-.191.378-.3l.1.12c.023.03.048.058.071.086l.059.071c.106.128.208.25.3.366l.058.071c.117.146.223.281.315.408l.019.026a3.406,3.406,0,0,1,.222.343.206.206,0,0,1,.013.023.9.9,0,0,1,.1.261.3.3,0,0,1,.006.1C152.432,361.129,151.978,361.534,151.459,361.929Zm5.926-4.652a2.85,2.85,0,0,1-2.928,2.757h-.778c-.005-.012-.014-.026-.019-.037-.049-.1-.1-.194-.165-.293l-.055-.087c-.062-.092-.128-.187-.2-.284l-.072-.1c-.079-.1-.161-.209-.25-.319l-.074-.093-.249-.3-.108-.133c-.182-.217-.381-.457-.594-.72l-.423-.523-.56.4a8.568,8.568,0,0,0-1.645,1.391c-.028.036-.062.071-.088.106s-.061.093-.092.139-.068.1-.1.156-.046.1-.068.152a1.419,1.419,0,0,0-.057.146,1.4,1.4,0,0,0-.04.169c-.006.027-.015.053-.021.08s0,.046,0,.068-.012.057-.013.085h-2.394a2.236,2.236,0,0,0,.123-.276c.005-.016.009-.032.014-.048a1.982,1.982,0,0,0,.085-.339c0-.012.006-.022.008-.032v-.022a1.873,1.873,0,0,0,.014-.37c0-.039-.009-.077-.013-.116-.009-.071-.022-.142-.037-.213a5.508,5.508,0,0,0-1.209-2.117c-.084-.106-.17-.214-.261-.324-.068-.085-.141-.174-.213-.261l-.234-.284c-.036-.041-.066-.08-.1-.124-.281-.339-.591-.711-.921-1.121l-.423-.523-.56.395c-.237.168-.461.329-.672.485-1.476,1.093-2.3,1.93-2.44,2.9,0,.032,0,.063,0,.094a1.723,1.723,0,0,0-.009.258,1.375,1.375,0,0,0,.012.161,1.821,1.821,0,0,0,.04.232c.015.068.032.138.054.208s.057.169.093.254c.023.057.05.114.077.17.039.079.08.157.125.237.035.061.068.123.107.185.066.106.137.214.213.324.04.058.083.117.126.177.022.031.043.062.066.093h-3.439c-.006-.014-.018-.031-.026-.046a3.131,3.131,0,0,0-.157-.279c-.019-.031-.04-.063-.062-.1-.059-.089-.124-.182-.194-.275-.025-.034-.049-.068-.075-.1-.083-.11-.173-.223-.268-.341l-.041-.053c-.116-.143-.239-.292-.372-.452l-.062-.074c-.165-.2-.341-.41-.532-.648l-.423-.525-.56.4a8.562,8.562,0,0,0-1.645,1.392c-.03.035-.062.07-.088.1s-.062.093-.092.141-.07.1-.1.155-.046.1-.068.152-.04.1-.055.146a1.407,1.407,0,0,0-.041.169c-.005.027-.015.053-.019.08s0,.045,0,.068-.013.055-.014.085h-.579a2.849,2.849,0,0,1-2.928-2.759v-8.4H128.6a3.637,3.637,0,0,0-.564-1.746l-.979-1.537h31.89l-.981,1.538a3.645,3.645,0,0,0-.563,1.744h-.015v8.4Zm3.508-5.777h-2.1v-1.314h2.1a.658.658,0,1,1,0,1.314Z" transform="translate(-123 -330.488)" fill="#10251c"/>
    <path id="Path_10200" data-name="Path 10200" d="M140.683,339.635a2.3,2.3,0,1,0-2.455-2.3A2.384,2.384,0,0,0,140.683,339.635Zm0-3.283a.987.987,0,1,1-1.052.985A1.022,1.022,0,0,1,140.683,336.352Z" transform="translate(-118.579 -332.408)" fill="#e7e0d6"/>
    <path id="Path_10201" data-name="Path 10201" d="M148.106,341.441a1.407,1.407,0,1,1-1.4-1.314A1.36,1.36,0,0,1,148.106,341.441Z" transform="translate(-116.526 -330.931)" fill="#e7e0d6"/>
    <path id="Path_10202" data-name="Path 10202" d="M131.248,341.3a1.244,1.244,0,0,1-.267.77.629.629,0,0,0,.156.916.73.73,0,0,0,.412.125.719.719,0,0,0,.569-.271,2.5,2.5,0,0,0,.533-1.541v-.025a.669.669,0,0,0-.7-.644A.689.689,0,0,0,131.248,341.3Z" transform="translate(-120.722 -330.786)" fill="#e7e0d6"/>
    <path id="Path_10203" data-name="Path 10203" d="M130.23,340.422a1.453,1.453,0,0,1,.813.243.73.73,0,0,0,.406.121.714.714,0,0,0,.572-.275.63.63,0,0,0-.163-.916,2.928,2.928,0,0,0-1.628-.485h-.018a.67.67,0,0,0-.692.655A.686.686,0,0,0,130.23,340.422Z" transform="translate(-121.107 -331.226)" fill="#e7e0d6"/>
    <path id="Path_10204" data-name="Path 10204" d="M128.6,342.213a.684.684,0,0,0,.7-.662,1.251,1.251,0,0,1,.263-.766.63.63,0,0,0-.163-.915.733.733,0,0,0-.979.152,2.5,2.5,0,0,0-.524,1.529v.012A.675.675,0,0,0,128.6,342.213Z" transform="translate(-121.579 -331.041)" fill="#e7e0d6"/>
    <path id="Path_10205" data-name="Path 10205" d="M128.706,342.147a.629.629,0,0,0,.159.916,2.918,2.918,0,0,0,1.64.5h.006a.658.658,0,1,0-.006-1.314,1.452,1.452,0,0,1-.819-.248A.733.733,0,0,0,128.706,342.147Z" transform="translate(-121.382 -330.424)" fill="#e7e0d6"/>
    <path id="Path_10206" data-name="Path 10206" d="M149.561,358.951H131.316a.658.658,0,1,0,0,1.314h18.245a.658.658,0,1,0,0-1.314Z" transform="translate(-120.789 -325.466)" fill="#10251c"/>
    <path id="Path_10207" data-name="Path 10207" d="M152.268,346.232H134.075a.658.658,0,1,0,0,1.314h18.194a.658.658,0,1,0,0-1.314Z" transform="translate(-119.988 -329.158)" fill="#020203"/>
    <path id="Path_10208" data-name="Path 10208" d="M132.527,346.232H129.14a.658.658,0,1,0,0,1.314h3.387a.658.658,0,1,0,0-1.314Z" transform="translate(-121.421 -329.158)" fill="#020203"/>
  </g>
</svg>
