<svg xmlns="http://www.w3.org/2000/svg" width="25.2" height="25.783" viewBox="0 0 25.2 25.783">
  <g id="avilblity" transform="translate(-20.107 -6.045)">
    <path id="Path_12166" data-name="Path 12166" d="M42.114,19.48V12.113A4.39,4.39,0,0,0,37.73,7.728H36.549V7.093a.948.948,0,0,0-1.9,0v.635H27.668V7.093a.948.948,0,1,0-1.9,0v.635H24.592a4.39,4.39,0,0,0-4.385,4.385V24.256a4.39,4.39,0,0,0,4.385,4.385h8.367a6.638,6.638,0,1,0,9.156-9.161ZM32.2,26.745H24.432a2.544,2.544,0,0,1-2.557-2.531V11.821A2.548,2.548,0,0,1,24.432,9.29h1.336v.648a.976.976,0,0,0,1.952,0V9.29h6.96v.648a.976.976,0,0,0,1.952,0V9.29h1.326a2.548,2.548,0,0,1,2.557,2.531v6.684a6.83,6.83,0,0,0-8.554,6.551A7.218,7.218,0,0,0,32.2,26.745Zm6.355,3.087A4.745,4.745,0,1,1,43.3,25.088,4.751,4.751,0,0,1,38.556,29.833Z" fill="#f5f0ea" stroke="#f5f0ea" stroke-width="0.2"/>
    <path id="Path_12167" data-name="Path 12167" d="M314.966,343.29a.726.726,0,0,0,.108.005.974.974,0,0,0,.678-.277l2.8-2.723a.97.97,0,0,0-1.35-1.394l-1.958,1.9-.445-.672a.971.971,0,1,0-1.622,1.068l1.09,1.66A.94.94,0,0,0,314.966,343.29Z" transform="translate(-277.412 -315.914)" fill="#f5f0ea" stroke="#f5f0ea" stroke-width="0.2" opacity="0.3"/>
  </g>
</svg>
