<svg xmlns="http://www.w3.org/2000/svg" width="24.2" height="24.2" viewBox="0 0 24.2 24.2">
  <g id="avilblity" transform="translate(-20.107 -6.045)">
    <path id="Path_12166" data-name="Path 12166" d="M41.238,18.655V11.744A4.167,4.167,0,0,0,37.029,7.63H35.9v-.6a.91.91,0,0,0-1.82,0v.6H27.37v-.6a.91.91,0,0,0-1.82,0v.6H24.416a4.167,4.167,0,0,0-4.209,4.113V23.135a4.167,4.167,0,0,0,4.209,4.113h8.032a6.406,6.406,0,0,0,5.379,2.9,6.316,6.316,0,0,0,6.38-6.235A6.217,6.217,0,0,0,41.238,18.655ZM31.721,25.47H24.263A2.416,2.416,0,0,1,21.808,23.1V11.47A2.419,2.419,0,0,1,24.263,9.1h1.283V9.7a.937.937,0,0,0,1.874,0V9.1H34.1V9.7a.937.937,0,0,0,1.874,0V9.1h1.273A2.419,2.419,0,0,1,39.7,11.47V17.74a6.727,6.727,0,0,0-1.643-.208,6.471,6.471,0,0,0-6.569,6.353A6.627,6.627,0,0,0,31.721,25.47Zm6.1,2.9a4.452,4.452,0,1,1,4.555-4.451A4.509,4.509,0,0,1,37.822,28.367Z" fill="#10251c" stroke="#10251c" stroke-width="0.2"/>
    <path id="Path_12167" data-name="Path 12167" d="M314.966,343.29a.726.726,0,0,0,.108.005.974.974,0,0,0,.678-.277l2.8-2.723a.97.97,0,0,0-1.35-1.394l-1.958,1.9-.445-.672a.971.971,0,1,0-1.622,1.068l1.09,1.66A.94.94,0,0,0,314.966,343.29Z" transform="translate(-278.215 -317.169)" fill="#10251c" stroke="#10251c" stroke-width="0.2" opacity="0.3"/>
  </g>
</svg>
