<svg xmlns="http://www.w3.org/2000/svg" xmlns:xlink="http://www.w3.org/1999/xlink" width="40" height="37.419" viewBox="0 0 40 37.419">
  <defs>
    <clipPath id="clip-path">
      <rect id="Rectangle_85" data-name="Rectangle 85" width="40" height="37.419" fill="#10251c"/>
    </clipPath>
  </defs>
  <g id="Group_16702" data-name="Group 16702" clip-path="url(#clip-path)">
    <path id="Path_10177" data-name="Path 10177" d="M328.331,351.367H289.668a.646.646,0,0,0-.667.625c0,7.221,6.28,13.1,14,13.1h12c7.719,0,14-5.875,14-13.1A.646.646,0,0,0,328.331,351.367ZM315,363.839H303c-6.76,0-12.3-4.979-12.648-11.224h37.3C327.3,358.86,321.76,363.839,315,363.839Z" transform="translate(-289 -327.668)" fill="#10251c"/>
    <path id="Path_10178" data-name="Path 10178" d="M319.851,341.737c0-.045,0-.092-.005-.16a2.63,2.63,0,0,0-1.866-2.2l.755-.706a3.184,3.184,0,0,0,.294-4.472,3.672,3.672,0,0,0-4.926-.445c-.085.066-.166.134-.249.212l-.819.778A2.755,2.755,0,0,0,310.659,333a2.6,2.6,0,0,0-2.805,2.357c0,.046,0,.092,0,.137v.956a2.783,2.783,0,0,0-1.33-.336c-.048,0-.1,0-.172,0a2.656,2.656,0,0,0-2.5,2.6v.848a2.787,2.787,0,0,0-1.33-.333c-.048,0-.1,0-.17.005a2.656,2.656,0,0,0-2.5,2.6v9.249a.647.647,0,0,0,.667.623H311.85a2.587,2.587,0,0,0,2.666-2.493,2.354,2.354,0,0,0-.359-1.248h.9a2.7,2.7,0,0,0,2.791-2.361,2.35,2.35,0,0,0-.365-1.4,2.722,2.722,0,0,0,1.585-.712A2.4,2.4,0,0,0,319.851,341.737Zm-1.724.88a1.373,1.373,0,0,1-.943.364h-2a.625.625,0,1,0,0,1.248h.074a1.281,1.281,0,0,1,1.262,1.288,1.391,1.391,0,0,1-1.449,1.205H311.85a.625.625,0,1,0,0,1.248,1.25,1.25,0,1,1,0,2.494H301.184v-8.636a1.363,1.363,0,0,1,1.262-1.343h.072a1.292,1.292,0,0,1,1.332,1.245v0a.645.645,0,0,0,.666.623h0a.645.645,0,0,0,.666-.622h0v-3.022a1.368,1.368,0,0,1,1.263-1.344h.072a1.3,1.3,0,0,1,1.332,1.246v0a.645.645,0,0,0,.666.623h0a.645.645,0,0,0,.666-.622h0V335.5l0-.07a1.289,1.289,0,0,1,1.375-1.181,1.368,1.368,0,0,1,1.288,1.356v.517a.625.625,0,0,0,.414.577.7.7,0,0,0,.728-.139l1.808-1.716c.05-.046.1-.089.154-.129a2.272,2.272,0,0,1,3.041.266,2,2,0,0,1-.195,2.8l-1.754,1.64a.594.594,0,0,0-.145.68.668.668,0,0,0,.615.385h.588a1.39,1.39,0,0,1,1.413,1.181v.07A1.2,1.2,0,0,1,318.128,342.617Z" transform="translate(-285.85 -333)" fill="#10251c"/>
    <path id="Path_10179" data-name="Path 10179" d="M315.568,336.042,296.9,353.5l.942.883,18.666-17.461Z" transform="translate(-286.706 -332.117)" fill="#10251c"/>
    <path id="Path_10180" data-name="Path 10180" d="M309.449,336.871h-1.334v3.119h1.334Z" transform="translate(-283.45 -331.876)" fill="#10251c"/>
    <path id="Path_10181" data-name="Path 10181" d="M306.349,339.288h-1.333v3.742h1.333Z" transform="translate(-284.35 -331.174)" fill="#10251c"/>
    <path id="Path_10182" data-name="Path 10182" d="M303.249,341.7h-1.333v4.366h1.333Z" transform="translate(-285.25 -330.475)" fill="#10251c"/>
    <path id="Path_10183" data-name="Path 10183" d="M311.965,338.8h-3.333v1.248h3.333Z" transform="translate(-283.3 -331.315)" fill="#10251c"/>
    <path id="Path_10184" data-name="Path 10184" d="M309.532,341.7h-4v1.248h4Z" transform="translate(-284.2 -330.475)" fill="#10251c"/>
    <path id="Path_10185" data-name="Path 10185" d="M307.1,344.6h-4.667v1.248H307.1Z" transform="translate(-285.1 -329.633)" fill="#10251c"/>
    <path id="Path_10186" data-name="Path 10186" d="M300.9,335.565s0,0,0,0a3.209,3.209,0,0,0-4.261-.8c-.044.027-.088.056-.137.09l-.24.17-.231-.155a3.221,3.221,0,0,0-4.3.106,2.739,2.739,0,0,0,.077,4.055,3,3,0,0,0,.568.4l.561.412v.319a3.34,3.34,0,0,0,6.666,0v-.32l.59-.431A2.75,2.75,0,0,0,300.9,335.565Zm-1.521,2.863-.853.623a.609.609,0,0,0-.256.492v.623a2,2,0,0,1-4,0v-.623a.609.609,0,0,0-.255-.492l-.854-.623a.57.57,0,0,0-.08-.052,1.7,1.7,0,0,1-.346-.241,1.547,1.547,0,0,1-.044-2.293,1.819,1.819,0,0,1,2.45-.041.53.53,0,0,0,.074.057l.666.449a.7.7,0,0,0,.794-.009l.7-.494a1.826,1.826,0,0,1,1.306-.243,1.734,1.734,0,0,1,1.106.69A1.555,1.555,0,0,1,299.379,338.429Z" transform="translate(-288.457 -332.68)" fill="#e7e0d6"/>
    <path id="Path_10187" data-name="Path 10187" d="M301.7,333.483h-1.333v1.248H301.7Z" transform="translate(-285.7 -332.86)" fill="#10251c"/>
    <path id="Path_10188" data-name="Path 10188" d="M304.8,348.949h-1.333V350.2H304.8Z" transform="translate(-284.8 -328.37)" fill="#10251c"/>
    <path id="Path_10189" data-name="Path 10189" d="M316.9,335.9v1.248a1.25,1.25,0,1,1,0,2.494v1.248a2.5,2.5,0,1,0,0-4.99Z" transform="translate(-280.9 -332.158)" fill="#10251c"/>
    <path id="Path_10190" data-name="Path 10190" d="M291.366,340.254h-1.333V341.5h1.333Z" transform="translate(-288.7 -330.894)" fill="#10251c"/>
    <path id="Path_10191" data-name="Path 10191" d="M290.334,338.321H289v1.248h1.333Z" transform="translate(-289 -331.455)" fill="#10251c"/>
    <path id="Path_10192" data-name="Path 10192" d="M309.75,348.468a2.588,2.588,0,0,0-2.667,2.494h1.334a1.336,1.336,0,0,1,2.666,0h1.333A2.587,2.587,0,0,0,309.75,348.468Z" transform="translate(-283.75 -328.509)" fill="#10251c"/>
    <path id="Path_10193" data-name="Path 10193" d="M297,344.539h-.085a2.717,2.717,0,0,0-5.164,0h-.085a2.5,2.5,0,1,0,0,4.988H297a2.5,2.5,0,1,0,0-4.988Zm0,3.742h-5.334a1.25,1.25,0,1,1,0-2.494h.667a.647.647,0,0,0,.667-.623,1.336,1.336,0,0,1,2.666,0,.647.647,0,0,0,.667.623H297a1.25,1.25,0,1,1,0,2.494Z" transform="translate(-289 -330.193)" fill="#e7e0d6"/>
    <path id="Path_10194" data-name="Path 10194" d="M294.917,347.018h-2.666a.647.647,0,0,0-.667.623v2.494a.646.646,0,0,0,.667.623h2.666a.646.646,0,0,0,.667-.623v-2.494A.646.646,0,0,0,294.917,347.018Zm-.666,2.494h-1.333v-1.248h1.333v1.248Z" transform="translate(-288.25 -328.93)" fill="#e7e0d6"/>
    <path id="Path_10195" data-name="Path 10195" d="M316.832,345.568a1.875,1.875,0,1,0,2,1.871A1.94,1.94,0,0,0,316.832,345.568Zm0,2.5a.625.625,0,1,1,.667-.625A.646.646,0,0,1,316.832,348.064Z" transform="translate(-281.5 -329.351)" fill="#e7e0d6"/>
    <path id="Path_10196" data-name="Path 10196" d="M317.433,343.635A4.375,4.375,0,1,0,322.1,348,4.529,4.529,0,0,0,317.433,343.635Zm0,7.484A3.125,3.125,0,1,1,320.766,348,3.236,3.236,0,0,1,317.433,351.119Z" transform="translate(-282.1 -329.912)" fill="#e7e0d6"/>
  </g>
</svg>
